<?xml version="1.0" encoding="utf-8"?>
<!DOCTYPE svg PUBLIC "-//W3C//DTD SVG 1.0//EN" "http://www.w3.org/TR/2001/REC-SVG-20010904/DTD/svg10.dtd">
<svg version="1.0" xmlns="http://www.w3.org/2000/svg" width="368px" height="272px" viewBox="0 0 368 272" preserveAspectRatio="xMidYMid meet">
 <g fill="#2f2f2f">
  <path d="M0 136 l0 -136 184 0 184 0 0 11.30 0 11.25 -4.35 -0.35 c-2.45 -0.15 -4.60 -0.60 -4.90 -0.90 -0.60 -0.70 -23.75 -0.45 -23.75 0.25 0 0.25 -2.25 0.45 -5 0.45 -3 0 -5 0.20 -5 0.50 0 0.30 -2.10 0.50 -5.30 0.50 -4.50 0 -5.45 -0.15 -5.95 -0.85 -0.55 -0.75 -1.85 -0.90 -9.45 -1.05 -6.25 -0.15 -8.80 -0.05 -8.80 0.35 0 0.30 -0.55 0.55 -1.25 0.55 -0.70 0 -2.25 0.25 -3.50 0.60 -2.10 0.55 -2.25 0.70 -2.25 2.25 0 0.90 -0.20 1.65 -0.50 1.65 -0.25 0 -0.50 0.50 -0.50 1.15 0 1.65 2.50 3.85 4.75 4.20 1.10 0.15 4.10 1.40 6.70 2.75 2.85 1.40 5.45 2.40 6.40 2.40 1.05 0 1.65 0.25 1.65 0.65 0 0.40 0.45 1.10 1 1.60 0.55 0.50 1.15 1.80 1.30 2.80 0.20 1.05 0.65 2.20 1 2.50 1.05 0.90 0.85 3.75 -0.55 6.75 -0.70 1.50 -1.25 3.10 -1.25 3.60 0 0.45 -0.35 1.75 -0.75 2.85 -0.40 1.10 -0.70 2.75 -0.75 3.65 0 1.30 -0.45 2.05 -1.75 3.25 -1.05 0.90 -1.75 2 -1.75 2.65 0 0.65 -0.20 1.30 -0.50 1.45 -0.30 0.15 -0.50 0.95 -0.50 1.75 0 2.15 -1.40 5.35 -2.45 5.65 -1.45 0.35 -2.45 2.95 -2.20 5.55 0.25 2.20 0.25 2.30 -1.05 2.30 -0.95 0 -1.30 0.25 -1.30 0.95 0 0.55 -0.40 1.80 -0.95 2.90 -1 2.05 -1.75 4.40 -2.30 7 -0.20 0.90 -0.60 1.65 -1 1.65 -0.85 0 -2.65 3.85 -3.05 6.60 -0.50 3.15 -2.15 6.75 -3.25 7.05 -0.75 0.20 -0.95 0.70 -0.95 2.30 0 1.40 -0.20 2.05 -0.65 2.05 -0.90 0 -1.80 2.05 -2.20 4.80 -0.20 1.70 -0.50 2.20 -1.35 2.30 -0.70 0.10 -1.10 0.60 -1.20 1.40 -0.10 0.70 -0.40 1.45 -0.65 1.70 -0.25 0.30 -0.45 1 -0.45 1.55 0 0.60 -0.45 1.50 -1 2 -0.55 0.50 -1 1.40 -1 2.05 0 0.65 -0.20 1.25 -0.45 1.40 -0.25 0.15 -0.60 0.90 -0.75 1.65 -0.20 0.80 -1.60 3.90 -3.10 6.95 -1.50 3.05 -2.70 5.90 -2.70 6.35 0 0.45 -0.20 0.95 -0.50 1.10 -0.25 0.15 -0.50 0.80 -0.50 1.45 0 0.65 -0.45 1.55 -1 2.05 -0.55 0.50 -1 1.40 -1 2 0 0.60 -0.45 1.50 -1 2 -0.55 0.50 -1 1.40 -1 2.05 0 0.65 -0.25 1.30 -0.50 1.45 -0.30 0.15 -0.50 0.70 -0.50 1.20 0 1 -2.35 5.90 -3.05 6.35 -0.65 0.35 -1.95 3.60 -1.95 4.75 0 0.50 -1.35 3.55 -3 6.80 -1.65 3.20 -3 6.20 -3 6.70 0 0.45 -0.35 1.10 -0.75 1.45 -1.15 0.95 -2.15 3.30 -2.55 5.90 -0.35 2.60 -1.45 5.10 -2.20 5.10 -0.30 0 -0.50 0.30 -0.50 0.65 0 0.40 -0.45 1.10 -1 1.60 -0.55 0.50 -1 1.30 -1 1.75 0 0.45 -0.30 1.40 -0.60 2.15 -0.55 1.10 -1 1.35 -2.40 1.35 -1.50 0 -1.85 -0.25 -2.45 -1.60 -0.40 -0.90 -1.05 -2.10 -1.50 -2.65 -1.05 -1.35 -2.05 -3.10 -2.05 -3.75 0 -0.75 -2.45 -5.90 -2.95 -6.25 -0.60 -0.35 -2.05 -3.20 -2.05 -4 0 -0.85 -2.45 -5.60 -3.25 -6.25 -0.40 -0.35 -0.75 -1.05 -0.75 -1.55 0 -0.55 -0.20 -0.95 -0.50 -0.95 -0.25 0 -0.50 -0.65 -0.50 -1.40 0 -2.05 -2.40 -6.60 -3.50 -6.60 -0.65 0 -0.95 -0.55 -1.20 -2.10 -0.65 -4 -1.85 -6.90 -2.85 -6.90 -0.70 0 -0.95 -0.35 -0.95 -1.25 0 -0.70 -0.20 -1.25 -0.40 -1.25 -0.45 0 -1.40 -3.30 -1.90 -6.50 -0.15 -1.25 -0.65 -2.65 -1.05 -3.10 -1.10 -1.25 -3.15 -5.40 -3.15 -6.40 0 -0.45 -0.15 -1 -0.35 -1.15 -0.20 -0.20 -0.70 -1.45 -1.15 -2.75 -0.50 -1.45 -1.25 -2.55 -1.90 -2.85 -0.60 -0.25 -1.10 -0.80 -1.10 -1.15 0 -0.35 -0.25 -1.15 -0.60 -1.75 -1.60 -2.90 -2.50 -7.35 -1.45 -7.35 0.20 0 0.60 -1.40 0.75 -3.10 0.30 -2.45 0.70 -3.60 2 -5.15 0.85 -1.10 2.10 -3.10 2.80 -4.50 0.65 -1.35 1.50 -2.85 1.85 -3.30 1.70 -2.05 9.65 -18.80 9.65 -20.30 0 -1.05 0.25 -1.65 0.65 -1.65 1.35 0 3.85 -3.75 3.85 -5.75 0 -0.70 0.40 -1.45 1 -1.75 0.55 -0.30 1 -0.85 1 -1.20 0 -0.35 0.40 -1.05 0.95 -1.50 0.50 -0.45 1.05 -1.75 1.25 -2.80 0.40 -2.50 1.85 -5.45 2.70 -5.50 0.35 0 0.80 -0.50 1.05 -1.15 0.25 -0.65 0.80 -1.45 1.25 -1.80 0.45 -0.35 0.80 -1.05 0.80 -1.55 0 -1.20 1.30 -3.65 2.55 -4.80 0.55 -0.50 1.45 -1.85 2 -3.05 0.50 -1.15 1.15 -2.25 1.45 -2.40 0.30 -0.15 0.95 -1.25 1.50 -2.45 0.50 -1.15 1.30 -2.45 1.75 -2.80 0.40 -0.35 0.75 -0.90 0.75 -1.25 0 -1.25 7.30 -8.10 10.05 -9.40 4.40 -2.10 10.70 -4.35 12.10 -4.35 0.70 0 1.45 -0.20 1.60 -0.50 0.15 -0.25 0.80 -0.50 1.45 -0.50 0.60 0 1.90 -0.80 2.95 -1.90 1.95 -2 1.95 -2 1.05 -6.45 -0.20 -1.15 -2.65 -2.15 -5.30 -2.15 -0.80 0 -1.40 -0.20 -1.40 -0.50 0 -0.30 -2.90 -0.50 -7.75 -0.50 -4.85 0 -7.75 0.20 -7.75 0.50 0 0.30 -0.90 0.50 -2 0.50 -1.10 0 -2 0.25 -2 0.50 0 0.30 -3.50 0.50 -9.50 0.50 -5.20 0 -9.50 -0.20 -9.50 -0.40 0 -1.40 -19.05 -2.60 -19.90 -1.30 -0.35 0.55 -1.75 0.90 -6.10 1.60 l-2.25 0.35 0.10 3.20 c0.10 4.10 0.85 4.90 5.30 5.65 1.85 0.30 3.35 0.75 3.35 0.95 0 0.25 0.30 0.45 0.65 0.45 0.40 0 1.10 0.45 1.60 1 0.50 0.55 1.50 1 2.25 1 2.95 0 5.75 2.25 7.80 6.30 1.20 2.40 1.60 5.50 0.70 5.80 -0.25 0.10 -0.60 1.80 -0.80 3.80 -0.25 2.40 -0.55 3.60 -0.95 3.60 -1.10 0 -2.75 3.40 -3.05 6.25 -0.25 2.20 -0.70 3.10 -2 4.45 -0.95 0.95 -1.70 2.20 -1.70 2.75 0 0.55 -0.20 1.15 -0.50 1.30 -0.25 0.15 -0.50 0.70 -0.50 1.20 0 1.20 -2.20 5.70 -3.20 6.50 -0.45 0.35 -0.80 1.05 -0.80 1.50 0 0.45 -0.45 2.05 -1.05 3.55 -0.60 1.50 -1.35 3.45 -1.65 4.35 -0.35 0.90 -1 2.05 -1.45 2.55 -0.50 0.55 -1.10 2.15 -1.30 3.60 -0.25 1.50 -0.80 2.95 -1.25 3.25 -0.45 0.35 -0.80 0.95 -0.80 1.40 0 0.40 -0.50 1.40 -1.10 2.20 -0.65 0.75 -1.40 1.85 -1.70 2.40 -0.80 1.45 -4.70 1.45 -5.45 0 -0.25 -0.60 -1.20 -1.95 -2.05 -3 -0.90 -1.15 -1.70 -2.90 -1.85 -4.05 -0.50 -3.05 -1.80 -5.80 -2.90 -6.05 -0.50 -0.15 -0.95 -0.55 -0.95 -0.90 0 -0.35 -0.35 -1.30 -0.75 -2.05 -0.40 -0.80 -0.75 -2.05 -0.75 -2.80 0 -0.75 -0.20 -1.50 -0.50 -1.65 -0.25 -0.15 -0.50 -0.85 -0.50 -1.50 0 -0.65 -0.20 -1.35 -0.50 -1.50 -0.30 -0.15 -0.50 -0.80 -0.50 -1.45 0 -0.65 -0.45 -1.55 -1 -2.05 -0.55 -0.50 -1 -1.40 -1 -2 0 -0.60 -0.45 -1.50 -1 -2 -0.55 -0.50 -1 -1.40 -1 -1.95 -0.05 -1.25 -1.10 -2.80 -1.95 -2.80 -0.30 0 -0.55 -0.45 -0.55 -1 0 -0.55 -0.20 -1 -0.45 -1 -0.20 0 -0.55 -1.40 -0.75 -3.10 -0.20 -2.05 -0.65 -3.45 -1.30 -4.15 -0.55 -0.60 -1 -1.30 -1 -1.65 0 -0.30 -0.30 -0.75 -0.65 -0.95 -1.45 -0.90 -2.85 -5.55 -3.15 -10.60 -0.35 -4.85 -0.30 -5.15 0.80 -6.30 0.80 -0.85 1.70 -1.25 2.80 -1.25 0.90 0 1.80 -0.20 1.95 -0.50 0.15 -0.25 0.70 -0.50 1.20 -0.50 0.50 0 2 -0.55 3.35 -1.25 1.35 -0.70 3 -1.25 3.70 -1.25 0.70 0 1.50 -0.40 1.85 -0.90 0.30 -0.55 1.35 -1.35 2.35 -1.80 l1.80 -0.85 0 -3.40 c0 -4.05 0 -4.05 -5.05 -4.05 -2.45 0 -3.45 -0.20 -3.45 -0.60 0 -0.50 -2 -0.60 -8.60 -0.50 -4.85 0.10 -8.70 0.35 -8.80 0.65 -0.10 0.25 -1.25 0.45 -2.55 0.45 -1.30 0 -2.60 0.25 -2.90 0.55 -0.95 0.95 -7.85 0.35 -9.05 -0.75 -1.20 -1.05 -4.10 -0.70 -4.10 0.50 0 0.60 -1.55 0.70 -9 0.70 -4.95 0 -9 -0.15 -9 -0.40 0 -0.20 -1.85 -0.75 -4.10 -1.25 -4.60 -1 -8.15 -0.70 -9.70 0.85 -0.70 0.75 -1.40 0.85 -4.30 0.55 -3.20 -0.35 -3.40 -0.30 -3.40 0.65 0 0.60 -0.20 1.20 -0.50 1.35 -0.80 0.50 -0.60 2.85 0.35 3.85 0.45 0.50 1.05 1.40 1.35 2.05 0.45 0.85 1.10 1.15 2.70 1.25 1.40 0.10 2.10 0.40 2.10 0.90 0 0.40 0.35 0.70 0.75 0.70 0.40 0 1.50 0.45 2.50 1 1 0.55 2.20 1 2.75 1 0.50 0 1.10 0.20 1.25 0.50 0.15 0.25 1.05 0.50 1.95 0.50 1 0 2 0.40 2.55 1 0.50 0.55 1.15 1 1.45 1 0.70 0 4.80 4.05 4.80 4.75 0 0.30 0.70 1.20 1.50 2 0.85 0.80 1.50 1.70 1.50 2 0 0.35 0.45 1 1 1.50 0.55 0.50 1 1.30 1 1.75 0 1.20 1.30 3.65 2.45 4.70 0.55 0.50 1.15 1.60 1.30 2.50 0.50 2.55 2.80 6.90 3.80 7.15 0.60 0.20 0.95 0.95 1.20 2.80 0.45 3.10 1.95 6.60 3.60 8.40 0.70 0.75 1.40 2.10 1.65 3 0.90 3.55 2.20 6.75 3.05 7.75 0.55 0.55 0.95 1.50 0.95 2.10 0 0.55 0.25 1.20 0.50 1.35 0.30 0.15 0.50 0.75 0.50 1.30 0 1.20 -0.05 1.05 3.75 8.05 0.70 1.30 1.25 2.85 1.25 3.45 0 1.25 2.20 5.75 3.45 7.20 1.35 1.50 2.05 3 2.05 4.50 0 0.75 0.30 2.05 0.70 2.90 0.35 0.90 0.90 2.20 1.20 3 0.35 0.75 0.90 1.35 1.30 1.35 0.35 0 0.80 0.50 0.95 1.15 1.10 4.40 1.45 5.60 2.10 6.55 0.40 0.55 0.75 1.35 0.75 1.80 0 0.40 0.35 1.40 0.75 2.20 0.40 0.75 0.75 1.85 0.75 2.35 0 0.50 0.20 1.05 0.50 1.20 0.25 0.15 0.50 0.65 0.50 1.05 0 0.40 0.45 1.70 1 2.80 1.05 2.20 1.35 5.15 0.50 5.65 -0.25 0.15 -0.50 1.15 -0.50 2.15 -0.05 2.20 -0.75 3.65 -2.60 5.05 -1.05 0.85 -1.40 1.65 -1.70 3.85 -0.20 1.80 -0.75 3.25 -1.50 4.20 -0.65 0.75 -1.20 1.60 -1.20 1.85 0 0.30 -0.40 0.85 -0.90 1.35 -0.55 0.45 -1.25 1.75 -1.60 2.95 -0.35 1.15 -0.85 2.30 -1.10 2.55 -0.20 0.30 -0.40 1.25 -0.40 2.15 0 1.05 -0.25 1.65 -0.65 1.65 -0.95 0 -2.35 1.65 -2.35 2.65 0 0.50 -0.20 1.25 -0.45 1.75 -0.85 1.75 -1.70 4.40 -1.90 6.25 -0.15 1 -0.55 1.85 -0.85 1.85 -0.95 0 -2.80 2.20 -2.80 3.35 0 0.55 -0.45 1.40 -1 1.90 -0.55 0.50 -1 1.40 -1.05 1.95 0 0.60 -0.45 1.75 -1 2.55 -0.95 1.55 -1.30 2.25 -3.15 6.35 -1.05 2.35 -1.10 2.40 -3.30 2.40 -1.95 0 -2.35 -0.20 -2.85 -1.35 -0.35 -0.75 -0.65 -1.75 -0.65 -2.20 0 -0.45 -0.35 -1.10 -0.75 -1.45 -0.90 -0.75 -2.25 -3.40 -2.25 -4.40 0 -0.45 -0.40 -1.25 -0.90 -1.80 -0.50 -0.60 -1.20 -2.05 -1.60 -3.30 -0.80 -2.90 -1.90 -5.40 -2.50 -5.75 -0.65 -0.40 -2 -3.25 -2 -4.30 0 -0.50 -0.20 -1.05 -0.50 -1.20 -0.25 -0.15 -0.50 -0.70 -0.50 -1.20 0 -1.30 -1.25 -3.55 -3 -5.45 -0.90 -1 -1.50 -2.20 -1.50 -3 0 -0.75 -0.55 -2.45 -1.25 -3.80 -0.70 -1.35 -1.25 -3.10 -1.25 -3.80 0 -0.75 -0.35 -1.65 -0.75 -2 -0.95 -0.80 -2.25 -3.40 -2.25 -4.55 0 -0.50 -0.20 -1.05 -0.50 -1.20 -0.30 -0.15 -0.50 -0.80 -0.50 -1.45 0 -1.15 -1.85 -3.30 -2.85 -3.30 -0.30 0 -0.65 -1.35 -0.85 -3 -0.35 -3.05 -1.40 -6.20 -2.25 -6.75 -0.70 -0.40 -2.05 -3.25 -2.05 -4.35 0 -0.50 -0.45 -1.90 -1 -3 -0.55 -1.15 -1 -2.35 -1 -2.65 0 -0.90 -1.40 -3.55 -2.25 -4.25 -0.40 -0.35 -0.75 -1.15 -0.75 -1.80 0 -0.60 -0.20 -1.30 -0.50 -1.45 -0.25 -0.15 -0.50 -0.80 -0.50 -1.45 0 -0.60 -0.20 -1.30 -0.45 -1.55 -0.25 -0.30 -0.55 -1.05 -0.65 -1.75 -0.10 -0.85 -0.50 -1.30 -1.20 -1.40 -0.90 -0.15 -1.15 -0.60 -1.40 -2.65 -0.20 -1.35 -0.75 -3.25 -1.30 -4.15 -0.50 -0.95 -1 -2.20 -1.10 -2.85 -0.05 -0.65 -0.65 -1.40 -1.25 -1.70 -0.65 -0.25 -1.15 -0.75 -1.15 -1 0 -0.30 -0.45 -1.50 -1 -2.65 -0.55 -1.10 -1 -2.60 -1 -3.30 0 -1.65 -0.75 -3.55 -1.85 -4.65 -1.45 -1.45 -2.65 -4.50 -2.65 -6.65 0 -1.05 -0.25 -2.10 -0.50 -2.25 -0.30 -0.15 -0.50 -0.85 -0.50 -1.45 0 -0.65 -0.35 -1.45 -0.75 -1.80 -0.85 -0.70 -2.25 -3.35 -2.25 -4.25 0 -0.35 -0.65 -1.95 -1.45 -3.55 -0.80 -1.60 -1.70 -3.50 -2 -4.20 -0.55 -1.30 -1.60 -3.05 -2.05 -3.50 -0.70 -0.65 -1.50 -3.25 -1.50 -4.80 0 -1.20 -0.40 -2.10 -1.15 -2.85 -1.70 -1.55 -2.15 -2.70 -2.55 -5.95 -0.15 -1.60 -0.75 -3.70 -1.30 -4.65 -1.40 -2.45 -1.40 -6.75 0 -8 0.55 -0.50 1 -1.20 1 -1.60 0 -0.35 0.50 -0.65 1.10 -0.65 0.60 0 1.50 -0.40 2 -0.85 0.55 -0.50 1.90 -1.15 3.05 -1.45 2.50 -0.70 5.25 -1.65 6.45 -2.25 0.50 -0.25 1.30 -0.45 1.80 -0.45 0.50 0 1.55 -0.65 2.30 -1.45 1.35 -1.40 1.35 -1.60 1.05 -4.75 -0.30 -2.75 -0.50 -3.30 -1.30 -3.30 -0.55 0 -0.95 -0.20 -0.95 -0.50 0 -0.30 -2.30 -0.50 -5.95 -0.50 -4.55 0 -6 -0.15 -6.20 -0.70 -0.20 -0.55 -1.85 -0.60 -8.70 -0.40 -4.60 0.10 -8.45 0.45 -8.55 0.65 -0.25 0.60 -5.60 0.55 -5.60 -0.05 0 -0.25 -0.65 -0.50 -1.50 -0.50 -0.80 0 -1.50 0.25 -1.50 0.50 0 0.65 -6.85 0.65 -7.10 0 -0.10 -0.25 -7.50 -0.50 -19.05 -0.55 l-18.95 -0.05 -1.20 1.15 c-1.85 1.70 -2.05 4.10 -0.65 7 0.90 1.80 1.50 2.45 2.30 2.45 0.60 0 1.20 0.20 1.35 0.45 0.15 0.20 1.10 0.55 2.05 0.70 1 0.15 2.95 0.85 4.40 1.55 1.45 0.65 3.65 1.35 4.95 1.55 1.45 0.20 3 0.80 3.85 1.55 0.80 0.65 1.65 1.20 1.90 1.20 0.65 0 5.65 5.15 5.65 5.85 0 0.30 0.35 0.80 0.75 1.15 0.45 0.35 1.25 1.60 1.75 2.75 0.50 1.15 1.30 2.40 1.75 2.75 0.40 0.35 0.75 1.15 0.75 1.75 0 0.60 0.35 1.40 0.75 1.75 0.45 0.35 1.25 1.60 1.75 2.75 0.50 1.15 1.30 2.40 1.75 2.75 0.40 0.35 0.75 1 0.75 1.50 0 0.45 0.40 1.40 0.90 2.05 0.50 0.65 1.20 2.15 1.60 3.30 0.35 1.15 1.20 2.60 1.80 3.20 0.65 0.65 1.20 1.60 1.20 2.15 0 1.40 3.55 8.30 4.30 8.30 0.65 0 1.20 1.60 1.20 3.60 0 0.75 0.45 2.15 1 3.15 0.55 1 1 2.10 1 2.45 0 0.35 0.45 1.25 1 1.95 0.55 0.70 1 1.60 1 1.95 0 0.95 4.95 10.60 5.55 10.80 0.25 0.10 0.45 0.70 0.45 1.35 0 0.65 0.20 1.30 0.45 1.45 0.25 0.15 0.60 0.85 0.75 1.55 0.20 0.70 1.25 3.20 2.30 5.50 1.10 2.30 2.15 4.90 2.35 5.85 0.35 1.80 2.05 4.35 2.95 4.35 0.30 0.05 0.70 1.30 0.85 2.80 0.30 2.75 2.35 7.70 3.65 8.80 0.40 0.30 0.70 0.90 0.70 1.30 0 0.40 0.35 1.05 0.75 1.45 0.40 0.45 0.75 1.35 0.75 2.10 0 0.75 0.35 2 0.75 2.80 0.40 0.75 0.75 1.65 0.75 2 0 0.30 0.70 1.90 1.50 3.55 0.85 1.65 1.50 3.35 1.50 3.75 0 0.45 0.20 1 0.40 1.30 0.25 0.25 0.75 1.40 1.10 2.55 0.35 1.20 1.05 2.50 1.60 2.95 0.50 0.50 0.90 1.35 0.90 2 0 0.65 0.25 1.30 0.50 1.45 0.30 0.15 0.50 0.65 0.50 1 0 0.40 0.90 2.70 2.05 5.10 3.40 7.30 3.95 8.65 3.95 9.30 0 0.30 0.90 2.40 2 4.55 1.10 2.15 2 4.45 2 5 0 1.70 2.55 6.40 3.60 6.70 0.60 0.15 0.90 0.70 0.90 1.80 0.05 0.85 0.35 2.35 0.70 3.30 0.40 0.95 1 2.55 1.35 3.50 1.15 3.15 3 7 3.40 7 0.25 0 0.55 1 0.70 2.25 0.40 2.75 2.25 6.75 3.10 6.75 0.45 0 0.80 1 1 2.90 0.15 1.55 0.75 3.70 1.30 4.75 0.50 1.10 0.95 2.15 0.95 2.40 0 0.30 0.45 1.45 1 2.55 0.55 1.15 1 2.45 1 2.90 0 0.45 0.20 1 0.40 1.25 0.25 0.30 0.95 2.10 1.60 4 0.65 1.95 1.85 4.30 2.75 5.30 1.40 1.55 1.65 2.25 1.90 5.55 0.35 3.90 0.95 5.95 2.30 7.55 0.40 0.45 0.95 1.35 1.25 2 0.40 0.75 1.10 1.15 2.20 1.25 0.85 0.10 1.60 0.35 1.60 0.60 0 0.20 0.90 0.55 2.05 0.75 1.85 0.30 2.20 0.20 3.65 -1.20 0.90 -0.85 1.85 -1.55 2.15 -1.55 0.65 0 4.20 -7 5.40 -10.75 0.45 -1.35 1.25 -3.45 1.80 -4.60 0.50 -1.20 0.95 -2.35 0.95 -2.60 0 -0.25 0.65 -1.75 1.50 -3.30 0.80 -1.55 1.50 -3.25 1.50 -3.75 0 -0.55 0.25 -1.10 0.50 -1.25 0.30 -0.15 0.50 -0.70 0.50 -1.20 0 -1 1.35 -3.90 2 -4.30 0.80 -0.50 2 -3.40 2 -4.80 0 -0.75 0.25 -1.55 0.50 -1.70 0.30 -0.15 0.50 -1.10 0.50 -2.05 0 -1.15 0.25 -1.70 0.70 -1.70 0.70 0 2.30 -2.60 2.30 -3.75 0 -0.35 0.35 -1.30 0.75 -2.05 0.40 -0.80 0.75 -1.85 0.75 -2.30 0 -0.50 0.20 -0.90 0.45 -0.90 0.25 0 0.60 -0.60 0.80 -1.35 0.15 -0.80 0.80 -1.90 1.35 -2.50 0.55 -0.55 1.10 -1.95 1.25 -3.10 0.20 -1.25 0.55 -2.05 0.95 -2.05 0.40 0 0.70 -0.30 0.70 -0.65 0 -1 1.40 -3.65 2.25 -4.35 0.40 -0.35 0.75 -1.05 0.75 -1.55 0 -0.50 0.40 -1.65 0.90 -2.55 0.50 -0.90 1.05 -2.50 1.25 -3.60 0.20 -1.10 0.75 -2.25 1.35 -2.65 1.10 -0.80 3.20 -5 3.70 -7.60 0.15 -0.95 0.75 -2.05 1.30 -2.40 1 -0.70 2.85 -4.20 3.50 -6.65 0.40 -1.50 2.15 -2.50 4.40 -2.50 1.35 0 1.60 0.15 1.60 1.25 0 0.65 0.40 1.95 0.90 2.85 0.50 0.90 1.20 2.65 1.60 3.90 0.80 2.65 2.50 5.50 3.30 5.50 0.80 0 1.20 1.20 1.20 3.55 0 1.85 0.75 3.70 3 7.20 0.50 0.85 0.95 1.90 0.95 2.35 0.05 0.50 0.50 1.65 1.05 2.65 0.55 1 1 2.05 1 2.45 0 0.35 0.75 1.65 1.70 2.85 1.15 1.50 1.80 3 2.05 4.65 0.35 2.70 1.50 4.80 2.55 4.80 0.45 0 0.70 0.60 0.70 1.65 0 0.95 0.40 2.45 0.85 3.40 1.15 2.25 2.15 5 2.15 6 0 0.45 0.30 1.10 0.70 1.40 0.95 0.80 3.30 5.30 3.30 6.30 0 1.40 1.55 5.70 2.30 6.30 0.40 0.30 0.70 0.90 0.70 1.25 0 0.40 0.30 0.70 0.70 0.70 0.80 0 1.30 1.50 1.30 3.90 0 0.90 0.20 2 0.45 2.50 0.25 0.45 0.75 1.60 1.05 2.50 0.35 0.85 0.90 1.60 1.25 1.60 0.65 0 2.25 6 2.25 8.60 0 1.30 0.45 2.10 1.90 3.55 1.60 1.60 2.20 1.85 4.15 1.85 1.65 0 2.55 -0.30 3.20 -1 0.50 -0.55 1.15 -1 1.50 -1 0.70 0 4.25 -3.60 4.25 -4.30 0 -0.30 0.45 -0.95 1 -1.45 0.65 -0.60 1 -1.55 1 -2.70 0 -2.80 0.55 -4.10 1.80 -4.60 0.70 -0.25 1.20 -0.85 1.20 -1.40 0 -0.55 0.45 -1.80 1 -2.80 0.55 -1 1 -2.60 1 -3.65 0 -2.50 0.50 -4.10 1.20 -4.10 0.90 0 3.80 -5.85 3.80 -7.70 0 -2.20 0.50 -3.80 1.20 -3.80 0.65 -0.05 3.35 -5.65 4.30 -9 0.40 -1.25 1.05 -2.70 1.45 -3.25 1.55 -1.95 2.05 -3.25 2.05 -5.20 0 -1.50 0.20 -2 1 -2.20 0.65 -0.15 1 -0.70 1 -1.50 0 -0.65 0.35 -1.50 0.75 -1.85 0.95 -0.80 2.25 -3.40 2.25 -4.55 0 -0.50 0.25 -1.05 0.50 -1.20 0.30 -0.15 0.50 -0.70 0.50 -1.20 0 -0.50 0.90 -2.65 2 -4.80 1.10 -2.15 2 -4.20 2 -4.60 0 -0.35 0.90 -2.35 1.95 -4.35 1.05 -2.05 2.10 -4.65 2.30 -5.85 0.40 -2.80 2.25 -7.45 2.95 -7.45 0.80 -0.05 3.80 -6.50 3.80 -8.15 0 -1.60 0.65 -3 2.05 -4.40 0.50 -0.50 0.95 -1.25 0.95 -1.65 0 -0.90 4.30 -9.60 4.95 -10 0.70 -0.45 2.05 -3.30 2.05 -4.35 0 -0.50 0.25 -1.05 0.50 -1.20 0.30 -0.15 0.50 -0.70 0.50 -1.20 0 -0.50 0.55 -2 1.25 -3.35 0.70 -1.35 1.25 -3.05 1.25 -3.80 0 -0.80 0.20 -1.40 0.45 -1.40 0.25 0 0.60 -0.60 0.75 -1.30 0.20 -0.70 0.90 -1.90 1.60 -2.60 1.65 -1.75 2.70 -4.30 2.70 -6.40 0 -1.35 0.20 -1.70 1 -1.70 0.65 0 1 -0.35 1 -0.90 0 -0.55 0.45 -1.35 1 -1.85 0.55 -0.50 1.10 -1.70 1.30 -2.70 0.45 -2.95 1.65 -5.65 2.95 -6.60 1.15 -0.95 3.75 -5.60 3.75 -6.70 0 -0.80 1.45 -3.65 2 -4 0.60 -0.40 4 -7.50 4 -8.40 0 -0.40 0.30 -1 0.70 -1.30 1 -0.85 3.30 -5.70 3.30 -6.95 0 -0.60 0.70 -1.85 1.55 -2.85 0.95 -1.10 1.65 -2.50 1.80 -3.75 0.15 -1.10 0.55 -2 0.90 -2 0.35 0 1.45 -1.70 2.50 -3.75 1 -2.05 2.05 -3.85 2.30 -4.05 0.25 -0.15 0.90 -1.20 1.45 -2.40 0.50 -1.15 1.30 -2.45 1.75 -2.80 0.40 -0.35 0.75 -0.90 0.75 -1.25 0 -0.30 0.45 -1 1 -1.50 0.55 -0.50 1 -1.15 1 -1.50 0 -0.35 0.45 -1 1 -1.50 0.55 -0.50 1 -1.15 1 -1.45 0 -0.75 4.95 -5.55 6.15 -5.95 0.50 -0.20 0.85 -0.80 0.85 -1.50 0 -1.45 1.75 -2.35 4.50 -2.35 1.05 0 2.10 -0.25 2.25 -0.50 0.15 -0.30 0.75 -0.50 1.25 -0.50 0.50 0 2.15 -0.70 3.65 -1.50 2.20 -1.20 3.35 -1.50 5.70 -1.50 2.35 0 3.20 -0.20 3.90 -1 0.50 -0.55 1.45 -1 2.10 -1 l1.15 0 0 120.75 0 120.75 -184 0 -184 0 0 -136z"/>
 </g>
 <g fill="#fffefb">
  <path d="M127.50 264.60 c-1.50 -0.75 -3 -1.85 -3.30 -2.45 -0.30 -0.65 -0.90 -1.55 -1.30 -2 -0.45 -0.50 -1.05 -1.80 -1.40 -2.90 -0.30 -1.10 -0.75 -2.65 -1 -3.40 -0.25 -0.75 -0.30 -2.15 -0.15 -3.05 0.20 -1.40 0 -2 -1.45 -3.60 -1.05 -1.15 -2.20 -3.40 -2.90 -5.45 -0.65 -1.90 -1.35 -3.70 -1.60 -3.95 -0.20 -0.30 -0.40 -0.85 -0.40 -1.30 0 -0.45 -0.45 -1.75 -1 -2.90 -0.55 -1.10 -1 -2.30 -1 -2.55 0 -0.30 -0.45 -1.30 -0.95 -2.25 -0.55 -0.95 -1.10 -2.65 -1.25 -3.80 -0.10 -1.15 -0.55 -2.45 -0.95 -2.90 -1.45 -1.75 -4.10 -8.80 -3.60 -9.60 0.15 -0.30 0.10 -0.50 -0.20 -0.50 -0.50 0 -3.05 -4.80 -3.05 -5.85 0 -0.55 -0.45 -1.60 -2.65 -6.50 -0.25 -0.60 -0.35 -1.55 -0.20 -2.10 0.15 -0.60 0.10 -0.95 -0.15 -0.80 -0.80 0.50 -4 -5.05 -4 -7 0 -0.60 -0.90 -2.90 -2 -5.05 -1.10 -2.15 -2 -4.25 -2 -4.55 0 -0.65 -0.55 -2 -3.95 -9.30 -1.15 -2.40 -2.05 -4.70 -2.05 -5.10 0 -0.35 -0.20 -0.85 -0.50 -1 -0.25 -0.15 -0.50 -0.80 -0.50 -1.45 0 -0.65 -0.40 -1.50 -0.90 -2 -0.55 -0.45 -1.25 -1.75 -1.60 -2.95 -0.35 -1.15 -0.85 -2.30 -1.10 -2.55 -0.20 -0.30 -0.40 -0.85 -0.40 -1.30 0 -0.40 -0.65 -2.10 -1.50 -3.75 -0.80 -1.65 -1.50 -3.25 -1.50 -3.55 0 -0.30 -0.55 -1.65 -1.25 -3 -1.35 -2.65 -1.55 -3.45 -0.75 -2.95 0.30 0.15 0.35 -0.05 0.20 -0.45 -0.15 -0.45 -0.50 -0.80 -0.75 -0.80 -0.25 0 -0.45 -0.40 -0.45 -0.95 0 -0.50 -0.30 -1.20 -0.70 -1.50 -1.35 -1.15 -4.65 -9.10 -4.10 -10 0.15 -0.25 -0.05 -0.55 -0.45 -0.75 -0.40 -0.15 -0.75 -0.60 -0.75 -0.95 0 -0.40 -0.40 -1.10 -0.95 -1.55 -0.50 -0.45 -1.05 -1.60 -1.20 -2.55 -0.15 -0.95 -1.15 -3.55 -2.25 -5.85 -1.10 -2.30 -2.15 -4.70 -2.35 -5.40 -0.20 -0.70 -0.80 -1.80 -1.30 -2.45 -0.55 -0.65 -0.95 -1.50 -0.95 -1.85 0 -0.35 -1.15 -2.80 -2.50 -5.50 -1.35 -2.70 -2.50 -5.20 -2.50 -5.60 0 -0.35 -0.45 -1.25 -1 -1.95 -0.55 -0.70 -1 -1.55 -1 -1.90 0 -0.35 -0.70 -1.95 -1.55 -3.55 -1.10 -2.15 -1.45 -3.35 -1.25 -4.45 0.20 -0.85 0.15 -1.25 -0.10 -0.85 -0.50 0.75 -5.40 -8.55 -4.90 -9.30 0.15 -0.25 -0.25 -0.95 -0.90 -1.55 -0.65 -0.60 -1.45 -2.05 -1.80 -3.20 -0.40 -1.15 -1.10 -2.65 -1.60 -3.30 -0.50 -0.65 -0.90 -1.60 -0.90 -2.05 0 -0.50 -0.35 -1.15 -0.75 -1.50 -0.45 -0.35 -1.25 -1.60 -1.75 -2.75 -0.50 -1.15 -1.30 -2.40 -1.75 -2.75 -0.40 -0.35 -0.75 -1.15 -0.75 -1.75 0 -0.60 -0.35 -1.40 -0.75 -1.75 -0.45 -0.35 -1.25 -1.60 -1.75 -2.75 -0.50 -1.15 -1.30 -2.40 -1.75 -2.75 -0.40 -0.35 -0.75 -0.90 -0.75 -1.20 0 -0.65 -5.05 -5.80 -5.70 -5.80 -0.20 0 -1.10 -0.55 -1.90 -1.30 -0.85 -0.70 -1.85 -1.15 -2.20 -1 -0.35 0.15 -0.80 0.05 -0.95 -0.20 -0.20 -0.30 -0.95 -0.50 -1.75 -0.50 -0.80 0 -2.25 -0.45 -3.20 -0.95 -0.95 -0.55 -2.70 -1.25 -3.90 -1.55 -1.15 -0.35 -2.60 -0.80 -3.15 -1.05 -0.55 -0.20 -1.45 -0.45 -2 -0.55 -0.55 -0.10 -1 -0.40 -1.05 -0.65 0 -0.30 -0.50 -1.45 -1.05 -2.60 -1.50 -3.20 -0.95 -7.35 1.25 -9.30 0.95 -0.85 2.95 -0.90 38.45 -0.95 25.65 0 37.85 0.20 38.80 0.55 0.80 0.30 3.60 0.55 6.25 0.55 4.10 0 4.95 0.15 5.85 1 1 0.95 1.05 1.25 0.60 3.60 -0.40 1.85 -0.35 2.65 0.05 2.80 0.80 0.25 -0.25 3.05 -1.80 4.70 -0.70 0.80 -1.80 1.40 -2.40 1.40 -0.65 0 -1.30 0.25 -1.45 0.50 -0.15 0.30 -0.75 0.50 -1.30 0.50 -0.55 0 -1.70 0.40 -2.60 0.85 -0.90 0.45 -2.25 0.95 -3.10 1.05 -0.80 0.10 -1.95 0.60 -2.55 1.15 -0.55 0.50 -1.50 0.95 -2.10 0.95 -0.60 0 -1.10 0.30 -1.10 0.65 0 0.40 -0.45 1.10 -1 1.60 -1.25 1.15 -1.25 2.60 -0.05 5.10 1.20 2.35 2.65 7.20 2.30 7.55 -0.15 0.15 -0.25 -0.05 -0.25 -0.40 0 -0.35 -0.15 -0.55 -0.30 -0.40 -0.40 0.40 1.20 3.40 1.80 3.40 0.30 0 0.75 0.60 1.10 1.40 0.30 0.75 0.85 2.10 1.25 3 0.40 0.90 0.55 2.10 0.40 2.70 -0.25 0.70 -0.20 0.90 0.20 0.70 0.30 -0.20 0.55 0 0.55 0.45 0 0.45 0.45 1.40 1 2.10 0.55 0.70 1 1.55 1 1.90 0 0.35 0.70 1.95 1.50 3.50 0.85 1.55 1.50 3.15 1.50 3.45 0 0.95 1.40 3.60 2.25 4.30 0.40 0.35 0.75 1.15 0.75 1.80 0 0.60 0.25 1.30 0.50 1.45 0.30 0.15 0.50 0.80 0.50 1.45 0 0.60 0.30 1.40 0.65 1.75 0.45 0.50 0.45 0.75 0 0.90 -0.35 0.10 -0.45 0.55 -0.30 0.95 0.15 0.35 0.50 0.55 0.80 0.35 0.30 -0.20 0.35 -0.05 0.15 0.30 -0.25 0.35 -0.05 1 0.35 1.45 1.10 1.25 4.35 7.60 3.95 7.65 -0.20 0.05 -0.50 0.05 -0.70 0 -0.55 -0.05 0.70 2.60 1.50 3.30 0.45 0.35 0.60 0.95 0.40 1.50 -0.20 0.45 -0.20 0.70 0 0.50 0.55 -0.50 2.20 1.15 2.20 2.20 0 0.50 0.45 1.70 1 2.70 0.55 1 1 2.20 1 2.75 0 0.50 0.25 1.10 0.55 1.25 0.25 0.20 0.40 0.60 0.30 0.90 -0.10 0.35 0.35 1 1 1.50 0.65 0.50 1.15 1.45 1.15 2.10 0 0.65 0.25 1.35 0.50 1.50 0.30 0.15 0.50 0.85 0.50 1.50 0 0.65 0.25 1.35 0.50 1.50 0.30 0.15 0.50 0.85 0.50 1.45 0 0.65 0.35 1.45 0.75 1.80 0.85 0.70 2.25 3.35 2.25 4.25 0 0.30 0.45 1.50 1 2.65 0.55 1.10 1 2.50 1 3 0 1.10 1.35 3.95 2.05 4.35 0.60 0.40 1.95 3.60 1.95 4.70 0 1.10 2.35 5.80 3.25 6.55 0.40 0.35 0.75 1.15 0.75 1.80 0 0.60 0.20 1.30 0.50 1.45 0.30 0.15 0.50 0.70 0.50 1.20 0 1.15 1.30 3.75 2.25 4.55 0.40 0.35 0.75 1.25 0.75 2 0 0.75 0.60 2.60 1.40 4.05 0.75 1.50 1.35 3.25 1.35 3.90 0 0.70 0.60 1.95 1.40 2.75 1.65 1.80 2.85 4.10 2.85 5.35 0 0.50 0.25 1.05 0.50 1.20 0.30 0.15 0.50 0.70 0.50 1.20 0 1.05 1.35 3.90 2 4.30 0.60 0.35 1.70 2.85 2.50 5.75 0.40 1.25 1.10 2.70 1.60 3.30 0.50 0.55 0.90 1.35 0.90 1.80 0 1 1.35 3.65 2.25 4.40 0.40 0.35 0.75 1 0.75 1.45 0 1.40 1.20 3.55 2 3.55 0.40 0 1.20 -1.10 1.80 -2.40 1.85 -4.10 2.20 -4.80 3.15 -6.35 0.55 -0.80 1 -1.95 1 -2.55 0.05 -0.55 0.50 -1.45 1.05 -1.95 0.55 -0.50 1 -1.40 1 -2 0 -0.60 0.45 -1.50 1 -2 0.55 -0.50 1 -1.15 1 -1.50 0 -0.30 0.30 -0.85 0.65 -1.15 0.30 -0.35 0.60 -0.80 0.60 -1 0.05 -0.20 0.45 -1.05 0.90 -1.95 0.45 -0.90 0.85 -2.05 0.85 -2.60 0 -0.55 0.25 -1.15 0.50 -1.30 0.30 -0.15 0.50 -0.80 0.50 -1.45 0 -1.20 1.40 -2.80 2.40 -2.80 0.80 0 0.75 -0.85 0 -1.15 -0.50 -0.15 -0.35 -0.60 0.35 -1.65 0.60 -0.80 1.35 -2.40 1.70 -3.55 0.40 -1.20 1.10 -2.50 1.65 -2.95 0.50 -0.50 0.90 -1.15 0.90 -1.45 0 -0.35 0.35 -0.90 0.80 -1.25 0.40 -0.40 0.95 -1.05 1.25 -1.55 0.40 -0.75 0.30 -0.85 -0.30 -0.60 -0.65 0.20 -0.60 -0.05 0.20 -1.55 0.60 -1 1.05 -2.25 1.05 -2.80 0 -0.55 0.65 -1.45 1.45 -2.05 1.70 -1.25 3.10 -4 2.20 -4.30 -0.40 -0.15 -0.30 -0.75 0.35 -1.90 0.95 -1.65 0.95 -1.70 -0.05 -3.70 -0.50 -1.10 -0.95 -2.35 -0.95 -2.75 0 -0.40 -0.20 -0.90 -0.50 -1.05 -0.25 -0.15 -0.50 -0.85 -0.50 -1.50 0 -0.65 -0.20 -1.30 -0.45 -1.50 -0.25 -0.15 -0.65 -0.95 -0.80 -1.80 -0.20 -0.90 -0.90 -2.70 -1.60 -4 -0.65 -1.35 -1.05 -2.70 -0.85 -3.05 0.25 -0.35 0.15 -0.40 -0.30 -0.15 -0.50 0.30 -0.60 0.20 -0.35 -0.40 0.20 -0.50 0.10 -0.85 -0.20 -0.85 -0.30 0 -0.45 -0.45 -0.30 -1 0.15 -0.55 0 -0.90 -0.30 -0.85 -0.90 0.20 -4.05 -6.80 -3.70 -8.25 0.15 -0.55 0.05 -0.80 -0.30 -0.55 -0.30 0.20 -0.40 0 -0.20 -0.50 0.20 -0.50 -0.15 -1.40 -0.90 -2.25 -1.60 -1.95 -3.75 -6.25 -3.75 -7.55 0 -0.60 -0.55 -2.15 -1.25 -3.45 -3.80 -7 -3.75 -6.85 -3.75 -8.05 0 -0.55 -0.25 -1.15 -0.50 -1.30 -0.30 -0.15 -0.50 -0.80 -0.50 -1.35 0 -0.60 -0.40 -1.55 -0.95 -2.10 -0.85 -1 -2.15 -4.20 -3.05 -7.75 -0.25 -0.90 -0.95 -2.25 -1.65 -3 -1.90 -2.05 -3.65 -6.60 -4 -10.15 -0.05 -0.45 -0.20 -0.75 -0.40 -0.60 -0.75 0.45 -3.95 -5.15 -3.95 -6.85 0 -0.50 -0.25 -1.05 -0.50 -1.20 -0.30 -0.20 -0.40 -0.50 -0.25 -0.70 0.10 -0.25 -0.20 -0.80 -0.75 -1.30 -1.20 -1.10 -2.50 -3.55 -2.50 -4.75 0 -0.45 -0.45 -1.25 -1 -1.75 -0.55 -0.50 -1 -1.15 -1 -1.50 0 -0.30 -0.65 -1.20 -1.50 -2 -0.80 -0.80 -1.50 -1.70 -1.50 -2 0 -0.70 -4.10 -4.75 -4.80 -4.75 -0.30 0 -0.95 -0.45 -1.45 -1 -0.55 -0.60 -1.55 -1 -2.55 -1 -0.90 0 -1.80 -0.20 -1.95 -0.50 -0.15 -0.25 -0.75 -0.50 -1.25 -0.50 -0.55 0 -1.75 -0.45 -2.75 -1 -1 -0.55 -2.20 -1 -2.75 -1 -0.50 0 -1.10 -0.20 -1.25 -0.50 -0.15 -0.25 -0.80 -0.50 -1.45 -0.50 -1.15 0 -2.80 -1.40 -2.80 -2.35 0 -0.25 -0.45 -0.90 -1 -1.40 -0.80 -0.70 -1 -1.55 -1 -3.80 0 -1.60 0.25 -3.05 0.50 -3.20 0.30 -0.15 0.50 -0.75 0.50 -1.30 0 -0.95 0.25 -1 3.45 -0.85 1.90 0.10 3.35 -0.05 3.20 -0.30 -0.15 -0.25 0 -0.35 0.40 -0.20 0.40 0.15 0.95 -0.05 1.30 -0.40 0.80 -0.75 6.40 -1.40 8.95 -1 3.55 0.50 7.20 1.50 7.20 1.90 0 0.20 3.45 0.40 7.65 0.40 4.90 0 7.35 -0.20 6.85 -0.50 -0.60 -0.35 -0.55 -0.50 0.25 -0.75 0.55 -0.20 1.35 -0.50 1.75 -0.70 1.30 -0.65 4.45 -0.25 5.50 0.70 1.15 1.05 5.70 1.65 6.20 0.80 0.20 -0.30 1.55 -0.55 2.95 -0.60 2.05 -0.05 2.35 -0.15 1.35 -0.45 -1.25 -0.40 2.50 -0.55 16.50 -0.75 6.30 -0.10 7.70 0.05 7.25 0.75 -0.15 0.20 1.20 0.50 3 0.60 3.95 0.25 4.65 0.75 3.75 2.85 -0.35 0.95 -0.55 2.75 -0.40 4.55 0.20 2.90 0.15 3 -1.20 3.45 -0.75 0.25 -1.95 1.05 -2.65 1.75 -0.70 0.75 -1.80 1.30 -2.40 1.30 -0.60 0 -2.20 0.55 -3.55 1.25 -1.35 0.70 -2.85 1.25 -3.35 1.25 -0.50 0 -1.05 0.20 -1.20 0.50 -0.15 0.25 -1.05 0.50 -1.95 0.50 -2.20 0 -3.80 1.75 -3.80 4.15 0 1 0.25 1.95 0.55 2.15 0.35 0.20 0.45 1.05 0.30 2 -0.20 1.20 -0.10 1.60 0.25 1.40 0.40 -0.25 0.45 -0.05 0.25 0.50 -0.40 0.95 0.40 2.85 1.45 3.45 0.35 0.20 0.75 1 0.95 1.80 0.15 0.80 0.75 1.85 1.30 2.35 0.50 0.45 0.95 1.35 0.95 2 0 0.65 0.25 1.30 0.55 1.50 0.35 0.20 0.45 1.05 0.25 2.15 -0.15 1.05 -0.10 1.50 0.15 1.10 0.30 -0.45 0.55 -0.50 0.75 -0.10 0.20 0.30 0.20 0.80 0.05 1.05 -0.15 0.30 -0.10 0.50 0.20 0.50 0.60 0 2.05 2.85 2.05 4 0 0.45 0.45 1.25 1 1.75 0.55 0.50 1 1.40 1 2 0 0.60 0.45 1.50 1 2 0.55 0.50 1 1.40 1 2.05 0 0.65 0.25 1.30 0.50 1.45 0.30 0.15 0.50 0.75 0.50 1.25 0 0.55 0.45 1.75 1 2.75 0.55 0.95 0.75 1.75 0.50 1.75 -0.65 0 -0.05 1.60 0.90 2.35 0.40 0.35 0.60 0.95 0.40 1.40 -0.15 0.45 -0.10 0.70 0.15 0.55 0.60 -0.40 1.75 1.10 2.50 3.20 0.35 0.95 0.90 2.25 1.15 2.85 0.30 0.55 0.40 1.35 0.30 1.75 -0.15 0.35 0.45 1.55 1.30 2.65 0.85 1.05 1.80 2.40 2.05 3 0.65 1.30 1.75 1.30 2.45 0 0.30 -0.55 1.05 -1.65 1.70 -2.40 0.60 -0.80 1.10 -1.75 1.10 -2.15 0 -0.40 0.45 -1.15 1 -1.70 1.15 -1.15 1.30 -2.10 0.25 -1.70 -0.50 0.20 -0.40 -0.30 0.45 -2 0.60 -1.25 1.45 -2.65 1.85 -3.10 0.35 -0.45 0.95 -1.50 1.25 -2.40 0.35 -0.85 1.05 -2.80 1.65 -4.30 0.60 -1.50 1.05 -3.10 1.05 -3.55 0 -0.45 0.35 -1.15 0.80 -1.50 1 -0.80 3.20 -5.30 3.20 -6.50 0 -0.50 0.20 -1 0.45 -1.15 0.20 -0.15 0.55 -0.90 0.70 -1.65 0.15 -0.80 0.90 -2.10 1.70 -2.95 0.75 -0.85 1.45 -2.05 1.50 -2.75 0.20 -3.10 2.65 -8.35 3.55 -7.75 0.25 0.15 0.40 -0.60 0.45 -1.60 0.05 -2.45 0.70 -5.30 1.20 -5.65 0.55 -0.35 -1.55 -4.60 -3.10 -6.25 -1.50 -1.60 -3.75 -2.70 -5.45 -2.70 -0.75 0 -1.75 -0.45 -2.25 -1 -0.50 -0.55 -1.20 -1 -1.60 -1 -0.35 0 -0.65 -0.20 -0.65 -0.40 0 -0.35 -1.05 -0.55 -3.25 -0.60 -1.35 -0.05 -3.95 -1.30 -4.80 -2.30 -0.35 -0.45 -0.75 -1.85 -0.80 -3.15 -0.05 -1.25 -0.25 -3.10 -0.40 -4.10 -0.40 -2.90 1.30 -3.80 7.50 -3.95 1.05 0 1.30 -0.15 0.80 -0.45 -1 -0.65 5.65 -1.20 11.20 -0.95 5.15 0.25 12.25 1.40 12.25 2 0 0.20 3.60 0.40 8.05 0.40 5.20 0 7.90 -0.15 7.70 -0.50 -0.20 -0.30 0.60 -0.50 2 -0.50 1.25 0 2.20 -0.20 2.05 -0.45 -0.15 -0.25 0.65 -0.55 1.85 -0.65 3.40 -0.35 18 0.05 18.30 0.50 0.15 0.25 0.95 0.60 1.70 0.80 1.10 0.25 1.35 0.20 1.05 -0.30 -0.20 -0.35 0.10 -0.25 0.65 0.20 0.55 0.50 1.25 0.90 1.55 0.90 0.35 0 0.55 0.15 0.50 0.40 -0.05 0.20 0.10 2.10 0.30 4.25 l0.40 3.95 -1.90 1.95 c-1.10 1.10 -2.40 1.95 -3 1.95 -0.65 0 -1.30 0.20 -1.45 0.50 -0.15 0.25 -1 0.50 -1.80 0.50 -0.85 0 -2.20 0.40 -3.10 0.85 -0.90 0.45 -1.80 0.90 -2.10 0.95 -1.30 0.20 -5.30 1.75 -7.25 2.75 -2.35 1.25 -9.50 8.15 -9.50 9.20 0 0.35 -0.35 0.90 -0.75 1.25 -0.45 0.35 -1.25 1.65 -1.75 2.80 -0.55 1.20 -1.20 2.30 -1.50 2.45 -0.30 0.15 -0.95 1.25 -1.45 2.40 -0.55 1.20 -1.45 2.55 -2 3.05 -1.25 1.15 -2.55 3.60 -2.55 4.80 0 0.45 -0.40 1.20 -0.90 1.65 -0.50 0.45 -1.20 1.60 -1.60 2.60 -0.40 0.95 -0.95 1.75 -1.35 1.75 -0.75 0 -1.80 1.85 -1.40 2.50 0.15 0.25 0.05 0.55 -0.25 0.75 -0.25 0.15 -0.50 0.80 -0.50 1.45 0 0.65 -0.45 1.55 -1 2.05 -0.55 0.50 -1 1.20 -1 1.55 0 0.35 -0.50 0.95 -1.10 1.25 -0.65 0.35 -0.90 0.70 -0.60 0.80 0.40 0.15 0.20 0.95 -0.55 2.45 -1.30 2.60 -3.20 4.80 -3.80 4.40 -0.20 -0.10 -0.30 0.30 -0.20 0.95 0.15 0.75 -1.35 4.35 -4.50 10.60 -2.60 5.15 -5.05 9.75 -5.40 10.20 -0.35 0.45 -1.20 1.95 -1.85 3.30 -0.70 1.40 -1.95 3.40 -2.85 4.55 -1.10 1.35 -1.50 2.35 -1.35 3.05 0.15 0.55 0.05 1.20 -0.25 1.35 -0.30 0.20 -0.55 1.15 -0.55 2.10 0 0.95 -0.20 1.70 -0.45 1.70 -0.25 0 -0.15 0.80 0.15 1.75 0.70 1.95 1.60 3.15 1.05 1.30 -0.25 -0.85 -0.20 -1.05 0.25 -0.80 0.35 0.20 0.45 0.85 0.30 1.55 -0.20 0.65 -0.10 1.20 0.15 1.20 0.30 0 0.40 0.45 0.30 1 -0.10 0.55 0 0.90 0.20 0.80 0.65 -0.40 1.85 1.25 2.60 3.45 0.35 1.10 0.85 2.20 1.05 2.45 0.20 0.30 0.40 0.85 0.40 1.30 0 0.95 2.05 5.15 3.15 6.40 0.80 0.90 1.40 3.05 1.50 5.25 0.05 0.75 0.30 1.35 0.50 1.35 0.25 0 0.25 0.25 0.10 0.50 -0.15 0.30 -0.05 0.50 0.30 0.50 0.30 0 0.45 0.40 0.30 1 -0.15 0.55 -0.10 0.90 0.15 0.75 0.20 -0.10 0.75 0.20 1.25 0.75 0.80 0.90 0.70 1.25 -0.35 1.05 -0.25 0 -0.40 0.20 -0.40 0.45 0 0.30 0.40 0.50 0.85 0.40 0.60 -0.10 1.10 0.55 1.75 2.35 0.50 1.40 0.90 2.90 0.90 3.35 0 0.45 0.60 1.55 1.35 2.45 1.90 2.25 3.65 5.85 3.65 7.55 0 0.75 0.25 1.40 0.50 1.40 0.30 0 0.50 0.40 0.50 0.95 0 0.50 0.35 1.20 0.75 1.55 0.80 0.65 3.25 5.40 3.25 6.25 0 0.80 1.45 3.65 2.05 4 0.50 0.35 2.95 5.50 2.95 6.25 0 0.65 1 2.40 2.05 3.75 0.45 0.55 1.10 1.75 1.50 2.65 0.40 0.85 0.80 1.60 0.95 1.60 0.40 0 1.50 -2.60 1.50 -3.50 0 -0.45 0.45 -1.25 1 -1.75 0.55 -0.50 1 -1.20 1 -1.60 0 -0.35 0.20 -0.65 0.50 -0.65 0.25 0 0.80 -0.65 1.25 -1.50 0.70 -1.35 0.70 -1.45 0 -1.15 -0.65 0.20 -0.60 -0.05 0.20 -1.55 0.60 -1 1.05 -2.15 1.05 -2.50 0 -0.95 1.40 -3.60 2.25 -4.30 0.40 -0.35 0.75 -1 0.75 -1.45 0 -0.50 1.35 -3.50 3 -6.70 1.65 -3.25 3 -6.30 3 -6.80 0 -1.15 1.30 -4.40 1.95 -4.75 0.70 -0.45 3.05 -5.35 3.05 -6.35 0 -0.50 0.25 -1.05 0.50 -1.20 0.30 -0.15 0.50 -0.80 0.50 -1.45 0 -0.65 0.45 -1.55 1 -2.05 0.55 -0.50 1 -1.40 1 -2 0 -0.60 0.45 -1.50 1 -2 0.55 -0.50 1 -1.40 1 -2.05 0 -0.65 0.25 -1.30 0.50 -1.45 0.30 -0.15 0.50 -0.65 0.50 -1.10 0 -0.45 1.20 -3.30 2.70 -6.35 1.50 -3.05 2.90 -6.15 3.10 -6.95 0.15 -0.75 0.50 -1.50 0.75 -1.65 0.25 -0.15 0.45 -0.75 0.45 -1.40 0 -0.65 0.45 -1.55 1 -2.05 0.55 -0.50 1 -1.40 1 -2.05 0 -0.65 0.25 -1.30 0.50 -1.45 0.30 -0.15 0.50 -0.85 0.50 -1.45 0 -0.65 0.35 -1.45 0.75 -1.80 0.75 -0.65 2.25 -3.35 2.25 -4.10 0 -0.20 0.40 -1.35 0.95 -2.55 0.50 -1.15 1.15 -2.70 1.45 -3.45 0.35 -0.80 0.90 -1.40 1.30 -1.40 0.35 0 0.80 -0.30 0.95 -0.60 0.15 -0.35 0.60 -1.50 1.05 -2.50 0.70 -1.70 0.70 -1.85 0 -1.55 -0.60 0.20 -0.55 -0.10 0.25 -1.55 0.60 -1 1.05 -2.05 1.05 -2.35 0 -0.95 2.50 -5.70 3.35 -6.35 0.50 -0.30 0.60 -0.60 0.25 -0.60 -0.35 0 -0.20 -0.60 0.40 -1.60 0.55 -0.90 1 -2.05 1 -2.50 0 -0.50 0.45 -1.65 1 -2.65 0.55 -1 1 -2.20 1 -2.70 0 -0.50 0.45 -1.30 1 -1.80 0.55 -0.50 1 -1.55 1 -2.35 0 -2.05 2.15 -5.65 3.05 -5.10 0.40 0.25 0.65 -0.50 0.50 -1.40 0 -0.25 0.20 -0.40 0.50 -0.40 0.30 0 0.45 -0.35 0.25 -0.75 -0.15 -0.40 -0.05 -0.75 0.20 -0.75 0.25 0 0.35 -0.35 0.20 -0.75 -0.15 -0.40 0.05 -1.45 0.50 -2.30 0.45 -0.90 0.80 -2 0.80 -2.45 0 -0.45 0.85 -1.55 1.85 -2.45 1.35 -1.20 1.65 -1.75 1.20 -2.05 -0.55 -0.30 -0.50 -0.70 0.10 -2.05 1.50 -3.55 1.85 -4.55 1.85 -5.45 0 -0.55 0.60 -2.25 1.30 -3.80 1.10 -2.45 1.20 -2.90 0.55 -3.60 -0.40 -0.50 -0.85 -1.65 -1.05 -2.65 -0.20 -1.05 -0.65 -2.10 -1.05 -2.45 -1.50 -1.25 -14.15 -7.35 -13.90 -6.70 0.30 0.85 -4 -1.30 -5.65 -2.85 -1 -0.90 -1.20 -1.60 -1.20 -3.80 0 -1.60 0.20 -2.65 0.55 -2.65 0.35 0 0.50 -0.70 0.35 -1.75 -0.15 -1.50 -0.05 -1.75 0.85 -1.75 0.60 0 1.25 -0.15 1.45 -0.40 0.45 -0.40 0.70 -0.45 3.10 -0.55 1.05 0 1.65 -0.25 1.45 -0.55 -0.20 -0.30 2.05 -0.50 6.35 -0.55 3.65 -0.05 7.65 -0.15 8.90 -0.20 1.25 -0.05 2.50 0.05 2.75 0.30 0.30 0.20 1.50 0.45 2.75 0.60 2.95 0.40 2.90 0.35 1.75 0.85 -0.65 0.30 0.45 0.40 3.25 0.40 2.95 0 3.80 -0.15 2.75 -0.40 -0.95 -0.25 0.80 -0.45 5 -0.50 5.10 -0.15 5.90 -0.25 3.75 -0.50 -1.70 -0.20 1.30 -0.35 7.75 -0.45 5.80 -0.05 12.85 -0.20 15.70 -0.40 4.50 -0.25 5.25 -0.20 5.65 0.50 0.30 0.60 1.10 0.85 2.60 0.85 1.20 0 2.90 0.15 3.75 0.30 l1.55 0.35 0 5.20 c0 5.05 -0.05 5.25 -1.35 6.40 -1 0.85 -2 1.20 -3.50 1.25 -1.15 0 -2.25 0.25 -2.45 0.55 -0.25 0.40 -0.45 0.40 -0.70 -0.05 -0.30 -0.45 -1.15 -0.20 -3.20 0.95 -1.60 0.85 -3.15 1.55 -3.50 1.55 -0.35 0 -1.55 0.45 -2.70 1 -2.20 1.05 -3.85 1.30 -3.35 0.50 0.15 -0.30 -0.05 -0.35 -0.50 -0.15 -0.50 0.15 -0.65 0.40 -0.30 0.60 0.50 0.35 -1.95 3.05 -2.80 3.05 -0.60 0 -5.65 5.15 -5.65 5.80 0 0.30 -0.45 0.95 -1 1.45 -0.55 0.50 -1 1.15 -1 1.50 0 0.35 -0.45 1 -1 1.50 -0.55 0.50 -1 1.20 -1 1.50 0 0.35 -0.35 0.90 -0.75 1.25 -0.45 0.35 -1.25 1.65 -1.75 2.80 -0.55 1.20 -1.20 2.25 -1.45 2.40 -0.25 0.15 -1.75 2.95 -3.35 6.15 -1.60 3.25 -3.55 6.70 -4.35 7.65 -0.85 0.90 -1.25 1.80 -1 1.85 0.55 0.20 -2.35 6.25 -3.60 7.70 -0.40 0.40 -0.75 1.05 -0.75 1.40 0 0.80 -3.40 7.95 -4 8.30 -0.55 0.35 -2 3.20 -2 4 0 1.15 -2.60 5.75 -3.80 6.70 -1.35 1.05 -2.40 3.40 -1.65 3.65 0.55 0.20 -1.75 5.05 -2.80 5.90 -0.40 0.35 -0.75 1 -0.75 1.45 0 1.20 -3.30 7.50 -4.75 9.15 -0.80 0.85 -1.10 1.70 -0.90 2.20 0.25 0.65 0.15 0.75 -0.35 0.45 -0.50 -0.30 -0.60 -0.20 -0.35 0.40 0.15 0.45 -0.55 2.40 -1.65 4.65 -1.10 2.10 -2 4.25 -2 4.75 0 0.50 -0.20 1.05 -0.50 1.20 -0.25 0.15 -0.50 0.70 -0.50 1.20 0 1.05 -1.35 3.90 -2.05 4.35 -0.65 0.40 -4.95 9.10 -4.95 10 0 0.40 -0.40 1.10 -0.90 1.60 -0.50 0.50 -0.80 1.20 -0.70 1.60 0.15 0.35 0 0.50 -0.30 0.30 -0.25 -0.15 -0.60 0.05 -0.80 0.45 -0.15 0.40 0 0.75 0.30 0.75 0.45 0 0.45 0.15 0 0.60 -0.35 0.35 -0.60 0.95 -0.60 1.40 0 1.05 -3.30 7.55 -3.80 7.50 -0.65 -0.15 -1.25 1.50 -0.95 2.65 0.20 0.75 0.15 0.90 -0.15 0.45 -0.40 -0.55 -0.50 -0.55 -0.75 0.10 -0.15 0.40 -0.05 0.80 0.25 0.90 0.30 0.10 0.10 0.95 -0.55 2.05 -0.60 1.05 -1.05 2.20 -1.05 2.55 0 0.40 -0.90 2.40 -2 4.50 -1.10 2.05 -2 4.10 -2 4.45 0 0.40 -0.90 2.45 -2 4.60 -1.10 2.15 -2 4.30 -2 4.80 0 0.50 -0.20 1.05 -0.50 1.20 -0.25 0.15 -0.50 0.70 -0.50 1.20 0 1.15 -1.30 3.75 -2.25 4.55 -0.40 0.35 -0.75 1.15 -0.75 1.80 0 0.60 -0.20 1.30 -0.50 1.45 -0.25 0.15 -0.50 0.70 -0.50 1.20 0 1 -2 5.15 -3.10 6.45 -0.40 0.45 -1 1.85 -1.40 3.10 -0.90 3.15 -4 9.55 -4.50 9.25 -0.20 -0.15 -0.50 0.20 -0.65 0.75 -0.15 0.50 0 1.05 0.35 1.15 0.40 0.15 0.40 0.40 -0.05 0.90 -0.35 0.35 -0.65 1 -0.65 1.40 0 0.45 -0.80 2.45 -1.80 4.45 -1.35 2.70 -1.95 3.50 -2.30 3 -0.30 -0.45 -0.35 -0.30 -0.15 0.45 0.35 1.25 -0.35 3.80 -1.80 6.80 -0.55 1.10 -0.95 2.30 -1 2.75 -0.05 1.25 -1.75 3.85 -2.40 3.70 -0.30 -0.05 -0.55 0.10 -0.55 0.40 0 0.25 0.25 0.50 0.60 0.50 0.45 0 0.45 0.15 0 0.60 -0.35 0.35 -0.60 1.10 -0.60 1.65 0 0.60 -0.45 1.50 -1 2 -0.55 0.50 -1 1.15 -1 1.50 0 0.70 -3.60 4.25 -4.30 4.25 -0.30 0 -0.95 0.45 -1.45 1 -0.75 0.85 -1.55 1 -4.75 1 -3.75 0 -3.80 -0.05 -5.55 -1.85 -2 -2.15 -3.20 -4.60 -2.55 -5.25 0.60 -0.60 0.10 -3.45 -0.50 -3.10 -0.30 0.20 -0.40 -0.10 -0.15 -0.75 0.15 -0.55 0.10 -1.05 -0.15 -1.05 -0.30 0 -0.40 -0.50 -0.25 -1.10 0.15 -0.80 0.10 -0.95 -0.20 -0.50 -0.35 0.45 -0.75 0.05 -1.40 -1.50 -0.50 -1.20 -1.20 -2.90 -1.60 -3.80 -0.40 -0.90 -1.05 -2.80 -1.50 -4.25 -0.40 -1.45 -1.05 -2.95 -1.40 -3.35 -0.80 -0.90 -2.25 -4.85 -2.25 -6.15 0 -1.10 -2.30 -5.60 -3.30 -6.40 -0.40 -0.30 -0.70 -0.95 -0.70 -1.40 0 -1 -1 -3.75 -2.15 -6 -0.45 -0.95 -0.85 -2 -0.85 -2.35 0 -0.35 -0.65 -1.60 -1.45 -2.80 -1.35 -2.10 -2.05 -4.05 -2.15 -6.15 -0.05 -0.55 -0.80 -2 -1.75 -3.20 -0.90 -1.20 -1.65 -2.50 -1.65 -2.85 0 -0.40 -0.45 -1.45 -1 -2.45 -0.55 -1 -1 -2.15 -1.05 -2.65 0 -0.45 -0.45 -1.50 -0.95 -2.35 -2 -3.10 -3 -5.25 -3 -6.30 0 -1.05 -1.60 -4.45 -2.80 -5.95 -0.35 -0.40 -1 -1.85 -1.45 -3.25 -0.45 -1.35 -1.25 -3.40 -1.75 -4.50 -0.55 -1.10 -1 -2.50 -1.10 -3.10 -0.15 -1 -0.25 -1.05 -1.35 -0.50 -0.70 0.30 -1.40 1.15 -1.55 1.85 -0.65 2.45 -2.50 5.95 -3.50 6.65 -0.55 0.35 -1.15 1.45 -1.30 2.40 -0.50 2.60 -2.60 6.80 -3.70 7.60 -0.60 0.40 -1.15 1.55 -1.35 2.65 -0.20 1.10 -0.75 2.70 -1.25 3.60 -0.50 0.90 -0.90 2.05 -0.90 2.55 0 0.50 -0.35 1.20 -0.75 1.55 -0.75 0.60 -2.25 3.35 -2.25 4.05 0 0.85 -2.50 5.80 -3.20 6.40 -0.40 0.35 -0.90 1.30 -1.05 2.10 -0.20 0.80 -0.55 1.45 -0.80 1.45 -0.30 0 -0.40 0.20 -0.20 0.45 0.15 0.30 -0.20 1.30 -0.75 2.30 -0.55 0.95 -1 2.10 -1 2.45 0 0.35 -0.90 2.40 -2 4.55 -1.10 2.15 -2 4.40 -2 5 0 1.15 -1.30 4.05 -2 4.50 -0.65 0.40 -2 3.30 -2 4.30 0 0.50 -0.20 1.05 -0.50 1.20 -0.25 0.15 -0.50 0.70 -0.50 1.25 0 0.50 -0.65 2.20 -1.50 3.75 -0.80 1.55 -1.50 3.05 -1.50 3.30 0 0.25 -0.45 1.40 -0.95 2.60 -0.55 1.15 -1.35 3.25 -1.80 4.60 -1.25 3.85 -4.75 10.75 -5.45 10.75 -0.35 0 -1.25 0.70 -2.05 1.50 -0.80 0.85 -1.95 1.50 -2.55 1.50 -0.65 0 -1.30 0.25 -1.45 0.50 -0.50 0.85 -2.35 0.55 -5.25 -0.90z m-34.65 -241.95 c-0.15 -0.50 -0.25 -0.10 -0.25 0.85 0 0.95 0.10 1.35 0.25 0.90 0.10 -0.50 0.10 -1.30 0 -1.75z m-44.20 -2.50 c-0.65 -0.10 -1.65 -0.10 -2.25 0 -0.65 0.10 -0.15 0.20 1.10 0.20 1.25 0 1.75 -0.10 1.15 -0.20z"/>
  <path d="M197.60 26 c0 -0.95 0.10 -1.35 0.25 -0.85 0.10 0.45 0.10 1.25 0 1.75 -0.15 0.45 -0.25 0.05 -0.25 -0.90z"/>
 </g>
 <g fill="#84776f">
  <path d="M127.50 264.60 c-1.50 -0.75 -3 -1.85 -3.30 -2.45 -0.30 -0.65 -0.90 -1.55 -1.30 -2 -0.45 -0.50 -1 -1.70 -1.30 -2.65 -0.30 -0.95 -0.75 -2.55 -1.05 -3.55 -0.40 -1.20 -0.40 -2.20 -0.10 -3 l0.50 -1.20 0 1.15 c0.05 0.60 0.35 1.65 0.75 2.25 0.40 0.60 0.85 1.90 1 2.90 0.20 1.05 0.75 2.40 1.30 3.10 0.55 0.70 1 1.45 1 1.70 0 0.60 2.60 2.85 3.55 3.05 0.40 0.10 0.75 0.35 0.85 0.60 0.40 1.15 6.25 -1.35 8.50 -3.65 1.75 -1.80 4.60 -7.25 4.60 -8.80 0 -0.55 0.25 -1.15 0.50 -1.30 0.30 -0.15 0.50 -0.85 0.50 -1.50 0 -0.65 0.30 -1.50 0.65 -1.85 0.60 -0.65 2.75 -6.15 3.20 -8.25 0.15 -0.65 0.45 -1.15 0.70 -1.15 0.25 0 0.45 -0.40 0.45 -0.90 0 -0.80 2.75 -7 4.50 -10.20 0.30 -0.50 0.50 -1.15 0.50 -1.50 0 -1 2.05 -4.90 2.55 -4.90 0.30 0 0.40 -0.20 0.25 -0.40 -0.15 -0.25 0.10 -1.05 0.50 -1.80 0.35 -0.80 0.70 -1.70 0.70 -2.05 0 -0.65 1.15 -3.45 2 -4.75 0.25 -0.40 1.40 -2.75 2.50 -5.15 1.15 -2.40 2.20 -4.30 2.40 -4.15 0.25 0.15 0.45 -0.55 0.50 -1.55 0.10 -1.05 0.65 -2.40 1.35 -3.25 0.70 -0.80 1.25 -1.85 1.25 -2.30 0 -0.90 9.95 -21.10 11 -22.35 0.35 -0.40 0.50 -0.75 0.35 -0.75 -0.50 0 3.45 -7.20 4.05 -7.40 0.35 -0.10 0.60 0.25 0.60 0.80 0 0.55 0.35 1.25 0.75 1.60 0.40 0.35 0.75 0.85 0.75 1.10 0 0.30 0.55 1.60 1.25 3 0.70 1.35 1.25 2.70 1.25 3 0 0.25 0.80 2.05 1.75 4 0.95 1.95 1.60 3.70 1.50 3.90 -0.15 0.20 0.20 0.75 0.75 1.25 0.55 0.50 1 1.25 1 1.70 0 0.70 1.45 4.05 3.40 7.80 0.45 0.85 0.95 1.90 1.20 2.40 0.20 0.45 0.65 1.30 0.90 1.85 0.30 0.55 0.50 1.25 0.50 1.60 0 0.35 0.90 2.45 2 4.65 1.10 2.20 2 4.25 2 4.55 0 0.35 0.35 1.20 0.70 2 0.40 0.75 0.65 1.55 0.55 1.75 -0.15 0.20 0.05 0.45 0.40 0.60 0.35 0.15 0.95 1.20 1.35 2.40 0.40 1.20 1 2.50 1.35 2.85 0.35 0.35 0.65 1 0.65 1.45 0 0.40 1.10 3.05 2.45 5.85 1.30 2.75 2.85 6.40 3.35 8.05 0.50 1.65 1.05 3.25 1.25 3.50 0.80 1.30 0.90 2.25 0.20 2.25 -0.40 0 -0.75 -0.30 -0.75 -0.70 0 -0.35 -0.30 -0.95 -0.70 -1.25 -0.75 -0.60 -2.30 -4.90 -2.30 -6.30 0 -1 -2.35 -5.50 -3.30 -6.30 -0.40 -0.30 -0.70 -0.95 -0.70 -1.40 0 -1 -1 -3.75 -2.15 -6 -0.45 -0.95 -0.85 -2 -0.85 -2.35 0 -0.35 -0.65 -1.65 -1.50 -2.85 -0.80 -1.20 -1.55 -2.90 -1.60 -3.80 -0.05 -0.85 -0.30 -1.55 -0.55 -1.55 -0.25 0 -0.30 -0.40 -0.10 -0.95 0.20 -0.60 -0.30 -1.60 -1.50 -3.05 -0.95 -1.15 -1.75 -2.40 -1.75 -2.80 0 -0.35 -0.45 -1.45 -1 -2.45 -0.55 -1 -1 -2.15 -1.05 -2.65 0 -0.45 -0.45 -1.50 -0.95 -2.35 -2.10 -3.25 -2.90 -5.10 -3.05 -6.75 -0.10 -0.95 -0.60 -2.20 -1.05 -2.70 -0.50 -0.55 -0.90 -1.25 -0.90 -1.60 0 -0.30 -0.30 -0.85 -0.70 -1.15 -0.40 -0.35 -1.10 -1.90 -1.60 -3.45 -0.50 -1.55 -1.30 -3.55 -1.75 -4.40 -0.50 -0.90 -0.95 -2.15 -1.05 -2.90 -0.15 -1.20 -0.25 -1.25 -1.35 -0.65 -0.70 0.30 -1.40 1.15 -1.55 1.85 -0.70 2.50 -2.45 5.80 -3.70 6.85 -0.75 0.65 -1.30 1.65 -1.30 2.40 0 1.80 -2.20 6.30 -3.70 7.60 -0.85 0.75 -1.30 1.65 -1.30 2.65 0 0.80 -0.45 2.25 -1 3.25 -0.55 1 -1 2.20 -1 2.70 0 0.50 -0.35 1.20 -0.75 1.55 -0.75 0.60 -2.25 3.35 -2.25 4.05 0 0.70 -2.50 5.90 -2.95 6.15 -0.65 0.40 -2.55 4.15 -2.25 4.45 0.15 0.10 -0.20 1.05 -0.80 2.05 -0.55 1 -1 2.15 -1 2.50 0 0.35 -0.90 2.40 -2 4.55 -1.10 2.15 -2 4.40 -2 5 0 1.15 -1.30 4.05 -2 4.50 -0.65 0.40 -2 3.30 -2 4.30 0 0.50 -0.20 1.05 -0.50 1.20 -0.25 0.15 -0.50 0.70 -0.50 1.25 0 0.50 -0.65 2.20 -1.50 3.75 -0.80 1.55 -1.50 3.05 -1.50 3.30 0 0.25 -0.45 1.40 -0.95 2.60 -0.55 1.15 -1.35 3.25 -1.80 4.60 -1.25 3.85 -4.75 10.75 -5.45 10.75 -0.35 0 -1.25 0.70 -2.05 1.50 -0.80 0.85 -1.95 1.50 -2.55 1.50 -0.65 0 -1.30 0.25 -1.45 0.50 -0.50 0.85 -2.35 0.55 -5.25 -0.90z"/>
  <path d="M222.90 261.15 c-1 -1.05 -1.90 -2.35 -2 -2.90 -0.10 -0.55 -0.35 -1.15 -0.65 -1.35 -0.25 -0.20 -0.30 -0.50 -0.10 -0.70 0.50 -0.50 2.20 1.15 2.55 2.55 0.15 0.65 1 1.70 1.85 2.30 2.40 1.70 6.05 1.20 9.70 -1.35 1.60 -1.05 3 -2.30 3.15 -2.70 0.15 -0.40 0.65 -1.20 1.10 -1.75 0.50 -0.55 1.15 -1.85 1.45 -2.85 0.45 -1.30 0.80 -1.75 1.35 -1.55 0.55 0.20 0.60 0.45 0.25 0.80 -0.30 0.30 -0.55 1.05 -0.55 1.60 0 0.60 -0.45 1.50 -1 2 -0.55 0.50 -1 1.15 -1 1.50 0 0.70 -3.60 4.25 -4.30 4.25 -0.30 0 -0.95 0.45 -1.45 1 -0.75 0.85 -1.55 1 -4.75 1 -3.75 0 -3.85 -0.05 -5.60 -1.85z"/>
  <path d="M127.50 261.40 c-1.35 -2.15 -2.90 -5.80 -4 -9.50 -1.25 -4.25 -0.45 -2.10 -12.30 -31.90 -5.10 -12.80 -9.90 -24.60 -10.65 -26.25 -0.80 -1.65 -2.45 -5.45 -3.70 -8.50 -8.80 -21.10 -21.25 -50.10 -27.45 -64 -2.35 -5.20 -4.80 -10.95 -5.40 -12.75 -0.65 -1.80 -1.45 -3.60 -1.80 -4 -0.50 -0.65 -6.95 -14.65 -10.90 -23.75 -2.80 -6.45 -17.15 -33.95 -19.10 -36.55 -2.45 -3.30 -7.10 -7.45 -10.20 -9.10 -1.10 -0.55 -3.40 -1.30 -5.05 -1.60 -9.05 -1.65 -14.95 -5.95 -12.20 -8.95 1.10 -1.30 3.55 -2.25 4.55 -1.85 1 0.40 0.50 1.05 -1.40 2 -1.35 0.65 -1.60 3.25 -0.40 3.80 0.40 0.20 1.50 0.70 2.40 1.15 0.95 0.45 2.30 0.85 3.05 0.85 0.75 0 1.60 0.25 1.90 0.55 0.30 0.30 1.45 0.65 2.60 0.75 2.65 0.30 11.20 4.90 13.60 7.25 1.50 1.50 3.45 4.45 8.45 12.95 0.90 1.55 12 24.90 12 25.25 0 0.65 2.55 5.90 3.55 7.35 0.55 0.70 0.95 1.65 0.95 2.05 0 0.40 0.35 1 0.75 1.35 0.40 0.35 0.75 1.25 0.75 2 0 0.75 0.35 1.65 0.75 2 0.40 0.35 0.75 0.95 0.75 1.30 0 0.95 3.30 7.55 4 7.95 0.25 0.15 0.50 0.75 0.50 1.35 0 0.55 0.30 1.70 0.70 2.55 0.40 0.90 1.10 2.45 1.50 3.50 0.40 1 1 1.85 1.25 1.85 0.30 0 0.55 0.45 0.55 0.95 0 0.55 0.25 1.15 0.50 1.30 0.30 0.15 0.50 0.80 0.50 1.40 0 0.65 0.30 1.55 0.65 2.10 0.35 0.55 1.10 2.15 1.60 3.50 0.50 1.40 1.65 4 2.55 5.80 0.95 1.80 1.70 3.60 1.70 4.05 0 0.45 0.35 1.05 0.75 1.40 0.40 0.35 0.75 1 0.75 1.45 0 0.45 0.35 1.30 0.75 1.85 0.40 0.60 1.20 2.40 1.75 4 1.30 3.60 1.90 5.05 2.80 6.85 0.40 0.80 0.70 1.75 0.70 2.15 0 0.40 0.15 0.70 0.40 0.70 0.20 0 0.75 1.15 1.25 2.50 0.50 1.40 1.10 2.50 1.35 2.50 0.20 0 0.55 0.65 0.75 1.50 0.20 0.80 0.55 1.60 0.80 1.75 0.25 0.20 0.45 0.85 0.45 1.50 0 0.65 0.20 1.30 0.45 1.45 0.25 0.15 0.60 1.10 0.75 2.05 0.35 1.75 2.35 6 3.35 6.95 0.25 0.30 0.45 1 0.45 1.60 0 0.55 0.55 2.10 1.25 3.40 0.70 1.30 1.25 2.70 1.25 3.10 0 0.35 0.25 0.70 0.50 0.70 0.30 0 0.50 0.50 0.50 1.15 0 0.65 0.35 1.60 0.75 2.15 0.40 0.50 0.75 1.35 0.75 1.85 0 0.45 0.20 0.85 0.45 0.85 0.25 0 0.60 0.65 0.80 1.50 0.20 0.80 0.55 1.60 0.80 1.75 0.25 0.20 0.45 0.80 0.45 1.40 0 0.60 0.35 1.55 0.75 2.05 0.40 0.50 0.60 1.10 0.50 1.30 -0.15 0.20 0.10 0.65 0.50 1 0.40 0.35 0.75 1.05 0.75 1.55 0 0.50 0.80 2.55 1.75 4.50 0.95 2 1.75 3.85 1.75 4.20 0 0.30 0.90 2.35 2 4.55 1.10 2.15 2 4.30 2 4.75 0 0.45 0.55 1.85 1.25 3.15 0.70 1.30 1.25 2.65 1.25 3.05 0 0.40 0.55 1.75 1.25 3.05 0.70 1.30 1.25 2.70 1.25 3.10 0 0.40 0.55 1.80 1.25 3.20 0.70 1.35 1.25 2.80 1.25 3.20 0 0.40 0.20 1.10 0.45 1.60 0.25 0.45 0.75 1.90 1.05 3.20 0.35 1.30 0.95 2.65 1.30 2.95 0.40 0.30 0.70 1 0.70 1.55 0 0.55 0.30 1.60 0.70 2.30 0.40 0.75 1.10 2.70 1.60 4.35 0.50 1.65 1.10 3.20 1.30 3.50 0.20 0.25 0.40 0.85 0.40 1.35 0 0.50 0.25 0.90 0.50 0.90 0.30 0 0.50 0.50 0.50 1.15 0 0.65 0.35 1.60 0.75 2.15 0.40 0.50 0.75 1.30 0.75 1.70 0 1.20 2.45 3.50 3.65 3.50 1.90 0 7.35 -6.50 7.35 -8.75 0 -0.40 0.55 -1.75 1.25 -3.05 0.70 -1.30 1.25 -2.85 1.25 -3.45 0 -0.55 0.35 -1.50 0.75 -2.05 0.40 -0.50 0.75 -1.35 0.75 -1.85 0 -0.90 0.20 -1.40 1.75 -4.35 2.10 -4.05 3.25 -6.55 3.25 -7.05 0 -0.30 0.55 -1.65 1.25 -3.05 0.70 -1.35 1.25 -2.90 1.25 -3.45 0 -0.55 0.55 -1.80 1.20 -2.85 0.65 -1 1.60 -2.95 2.10 -4.35 0.50 -1.35 1.30 -3.05 1.80 -3.70 0.50 -0.65 0.90 -1.55 0.90 -2.05 0 -0.45 1.30 -3.45 2.95 -6.60 1.60 -3.15 3.10 -6.25 3.30 -6.95 0.60 -1.90 3.90 -8.85 9.05 -19.10 2.60 -5.15 4.70 -9.65 4.70 -10 0 -1.40 3.30 -7.30 4.40 -7.80 2.60 -1.20 5.50 0.15 6.60 3.05 0.35 0.90 1.15 2.85 1.80 4.30 0.65 1.45 1.20 2.85 1.20 3.15 0 0.50 2.75 6.30 4.20 8.95 0.40 0.70 0.95 1.95 1.30 2.75 1.05 2.55 1.80 4.35 3.70 8.50 1 2.25 1.80 4.40 1.80 4.85 0 0.45 0.20 0.95 0.45 1.15 0.60 0.35 2.05 3.20 2.05 4 0 0.35 0.35 0.90 0.75 1.25 0.40 0.35 0.75 1.25 0.75 2 0 0.75 0.55 2.20 1.25 3.20 0.70 1 1.25 2.15 1.25 2.50 0 0.35 0.55 1.50 1.25 2.50 0.70 1 1.25 2.15 1.25 2.55 0 0.40 0.25 0.85 0.50 1 0.30 0.15 0.50 0.75 0.50 1.35 0 0.55 0.35 1.70 0.80 2.55 1.40 2.70 1.55 3.05 1.95 4.85 0.20 0.95 0.70 2.30 1.15 3 1.45 2.20 2.60 4.70 2.60 5.50 0 0.45 0.20 1 0.45 1.25 0.20 0.30 0.80 1.65 1.30 3 0.45 1.40 1.05 2.95 1.25 3.50 0.20 0.55 0.80 2.40 1.30 4.15 0.45 1.75 1.05 3.25 1.30 3.40 0.20 0.15 0.40 0.75 0.40 1.40 0 0.60 0.35 1.55 0.75 2.10 0.40 0.50 0.75 1.45 0.75 2.05 0 0.65 0.65 1.85 1.40 2.70 1.10 1.25 1.70 1.55 2.65 1.30 2.05 -0.55 4.45 -2.30 4.45 -3.25 0 -0.55 0.50 -1.35 1.05 -1.90 0.60 -0.50 1.30 -1.40 1.55 -1.95 0.25 -0.55 0.90 -1.80 1.45 -2.75 0.50 -0.95 0.95 -2.40 0.95 -3.15 0 -0.75 0.35 -1.50 0.75 -1.65 0.40 -0.20 0.75 -0.60 0.75 -1 0 -0.40 0.20 -1.10 0.45 -1.60 0.20 -0.45 0.65 -1.50 0.95 -2.35 0.25 -0.80 1.30 -3.30 2.25 -5.50 2.60 -6 4.80 -11.20 6.10 -14.25 0.65 -1.50 1.95 -4.55 2.95 -6.75 1 -2.25 1.80 -4.25 1.80 -4.45 0 -0.55 1.30 -3.50 3 -6.80 0.75 -1.50 1.55 -3.30 1.75 -4 0.20 -0.70 1.25 -3.10 2.30 -5.35 1.10 -2.30 1.95 -4.45 1.95 -4.85 0 -0.40 1.15 -2.85 2.50 -5.50 1.40 -2.65 2.50 -5.25 2.50 -5.80 0 -0.50 0.80 -2.25 1.75 -3.85 0.95 -1.60 1.75 -3.25 1.75 -3.65 0 -0.40 0.35 -1.20 0.75 -1.70 0.40 -0.55 0.75 -1.60 0.75 -2.35 0 -0.70 0.30 -1.60 0.70 -1.90 0.40 -0.35 1.45 -2.35 2.30 -4.45 0.90 -2.10 1.90 -4.20 2.30 -4.65 0.40 -0.40 0.70 -0.95 0.70 -1.20 0 -0.20 1.45 -3.60 3.25 -7.50 1.80 -3.90 3.25 -7.45 3.25 -7.90 0 -0.45 0.65 -1.95 1.50 -3.35 1.65 -2.85 12.30 -24.05 15.15 -30.25 1 -2.20 2.15 -4.55 2.50 -5.25 3.30 -6.20 11.05 -21.55 12.20 -24.25 0.70 -1.65 1.95 -3.85 2.75 -4.90 0.85 -1.05 1.95 -3 2.45 -4.40 1.45 -3.70 4.25 -9.15 5.15 -9.90 0.45 -0.40 0.80 -0.90 0.80 -1.20 0 -0.25 0.55 -1.20 1.20 -2.05 0.60 -0.85 1.50 -2.25 1.95 -3.10 1.15 -2.20 6.65 -8.20 9.05 -9.85 1.10 -0.75 2.35 -1.70 2.80 -2.10 0.40 -0.40 1.30 -0.80 2 -0.95 1.55 -0.30 4.35 -1.25 6 -2.05 0.70 -0.30 1.55 -0.50 1.90 -0.45 0.30 0.05 0.90 0.10 1.25 0.15 0.90 0.10 -1.15 1.55 -2.25 1.55 -0.45 0 -1.60 0.30 -2.50 0.70 -0.90 0.40 -2.65 1.10 -3.90 1.60 -3.25 1.35 -11.10 9.60 -14.95 15.75 -1.65 2.70 -5.25 9.20 -7.95 14.55 -5.50 10.75 -21.05 41.20 -23.85 46.65 -1.80 3.60 -5.90 12.40 -15.25 32.75 -4.75 10.40 -6.05 13.20 -8.75 19.25 -0.65 1.50 -5.55 12.70 -10.50 24 -1.45 3.30 -5.15 11.75 -8.25 18.75 -7.15 16.25 -10.30 23.75 -14.35 34 -3.85 9.80 -5.15 12.35 -7.20 14.70 -2.35 2.70 -4.55 3.90 -7 3.70 -2.75 -0.20 -3.55 -1.35 -5.25 -7.40 -0.75 -2.60 -2.50 -7.65 -3.95 -11.25 -1.45 -3.55 -3 -7.75 -3.50 -9.25 -0.80 -2.50 -1.65 -4.50 -2.80 -6.50 -0.25 -0.40 -0.60 -1.10 -0.75 -1.50 -3 -7.40 -7.60 -18 -8.90 -20.50 -0.90 -1.80 -2.50 -5.40 -3.55 -8 -1 -2.60 -2.85 -6.75 -4.05 -9.25 -1.15 -2.45 -4.10 -8.75 -6.45 -14 -4.30 -9.45 -5.65 -11.70 -6.70 -11 -0.60 0.35 -14.70 28.75 -18.10 36.40 -2.20 4.95 -7.40 16.15 -11.70 25.10 -1.45 3.05 -2.80 6.05 -3 6.75 -0.20 0.70 -1.70 4.55 -3.30 8.55 -1.60 4 -3.60 9.30 -4.50 11.75 -2.55 7.20 -4.80 10.35 -8.55 11.90 -2.70 1.15 -4.50 1 -5.40 -0.30z"/>
  <path d="M220.55 253.90 c0 -0.45 -0.20 -1.25 -0.35 -1.75 -0.25 -0.85 -0.25 -0.85 0.30 0 0.30 0.50 0.45 1.25 0.35 1.75 -0.20 0.75 -0.25 0.75 -0.30 0z"/>
  <path d="M241.40 249.55 c0.35 -0.20 0.60 -0.60 0.50 -0.85 -0.15 -0.65 1.65 -6.20 2.15 -6.50 0.25 -0.15 0.65 -1.15 0.95 -2.20 0.30 -1.10 0.75 -2 1 -2 0.25 0 0.30 -0.35 0.15 -0.85 -0.20 -0.55 -0.15 -0.70 0.30 -0.45 0.40 0.25 0.55 0.15 0.50 -0.25 -0.25 -1.50 1.60 -6.60 2.55 -7.20 0.30 -0.15 0.50 -0.75 0.50 -1.30 0 -0.55 0.35 -1.10 0.75 -1.30 1.05 -0.35 1.60 0.20 0.85 0.95 -0.35 0.35 -0.60 0.95 -0.60 1.45 0 0.45 -0.85 2.45 -1.90 4.50 -1.05 2.05 -2.20 4.70 -2.55 5.95 -0.35 1.25 -1.10 3.10 -1.60 4.15 -0.50 1.10 -0.95 2.25 -0.95 2.55 0 1.30 -1.60 3.80 -2.40 3.80 -0.65 0 -0.70 -0.10 -0.20 -0.45z"/>
  <path d="M217.95 248.40 c-0.05 -0.35 -0.05 -0.80 0 -1 0 -0.25 -0.15 -0.40 -0.45 -0.40 -0.25 0 -0.50 -0.40 -0.50 -0.90 0 -0.50 -0.20 -1.10 -0.45 -1.35 -0.25 -0.30 -0.55 -0.95 -0.65 -1.50 -0.05 -0.55 -0.35 -1.15 -0.65 -1.35 -0.25 -0.20 -0.30 -0.50 -0.10 -0.70 0.65 -0.65 2.20 1.30 3 3.70 0.40 1.30 0.90 2.75 1.10 3.25 0.25 0.60 0.10 0.85 -0.45 0.85 -0.45 0 -0.85 -0.30 -0.85 -0.60z"/>
  <path d="M118.40 246.60 c-0.70 -0.75 -1.80 -2.90 -2.40 -4.85 -0.65 -1.90 -1.35 -3.70 -1.60 -3.95 -0.20 -0.30 -0.40 -0.85 -0.40 -1.30 0 -0.45 -0.45 -1.75 -1 -2.90 -0.55 -1.10 -1 -2.30 -1 -2.55 0 -0.30 -0.45 -1.30 -0.95 -2.25 -0.55 -0.95 -1.10 -2.65 -1.20 -3.75 -0.10 -1.15 -0.55 -2.45 -0.95 -2.95 -1.45 -1.70 -4.15 -8.75 -3.65 -9.60 0.15 -0.25 0 -0.60 -0.35 -0.85 -0.95 -0.60 -3.90 -7.25 -4.05 -9 0 -0.35 -0.20 -0.65 -0.45 -0.65 -0.20 0 -0.40 -0.45 -0.40 -0.95 0 -0.55 -0.25 -1.15 -0.55 -1.35 -0.30 -0.15 -0.45 -0.95 -0.35 -1.75 0.15 -0.75 0.05 -1.30 -0.15 -1.20 -0.90 0.60 -3.95 -5.20 -3.95 -7.55 0 -0.90 -0.15 -1.70 -0.35 -1.80 -0.50 -0.20 -3.65 -6.55 -3.65 -7.30 0 -0.60 -0.55 -1.85 -3.55 -8.35 -0.90 -1.90 -1.60 -3.80 -1.60 -4.10 0 -0.35 -0.20 -0.65 -0.45 -0.65 -0.20 0 -0.40 -0.45 -0.40 -0.95 0 -0.55 -0.20 -1.15 -0.50 -1.30 -0.25 -0.15 -0.50 -0.80 -0.50 -1.45 0 -0.65 -0.40 -1.50 -0.90 -2 -0.55 -0.45 -1.25 -1.75 -1.60 -2.95 -0.35 -1.15 -0.85 -2.30 -1.10 -2.55 -0.20 -0.30 -0.40 -0.85 -0.40 -1.30 0 -0.40 -0.65 -2.10 -1.50 -3.75 -0.80 -1.65 -1.50 -3.25 -1.50 -3.55 0 -0.30 -0.55 -1.65 -1.25 -2.95 -0.80 -1.60 -1.05 -2.60 -0.70 -2.80 0.35 -0.20 0.25 -0.60 -0.25 -1.10 -0.45 -0.40 -0.80 -1.10 -0.80 -1.50 0 -0.40 -0.30 -1 -0.70 -1.30 -1.40 -1.20 -4.60 -9.10 -4.05 -10.05 0.15 -0.30 -0.05 -0.65 -0.45 -0.80 -0.45 -0.15 -0.80 -0.60 -0.80 -0.95 0 -0.30 -0.40 -1 -0.95 -1.45 -0.50 -0.45 -1.05 -1.60 -1.20 -2.55 -0.15 -0.95 -1.15 -3.55 -2.25 -5.85 -1.10 -2.30 -2.15 -4.70 -2.35 -5.40 -0.20 -0.70 -0.80 -1.80 -1.30 -2.45 -0.55 -0.65 -0.95 -1.50 -0.95 -1.85 0 -0.35 -1.15 -2.80 -2.50 -5.50 -1.40 -2.70 -2.50 -5.20 -2.50 -5.60 0 -0.35 -0.45 -1.25 -1 -1.95 -0.55 -0.70 -1 -1.55 -1 -1.90 0 -0.35 -0.65 -1.95 -1.50 -3.50 -1.70 -3.25 -1.80 -3.75 -0.75 -3.75 0.40 0 0.75 0.30 0.75 0.65 0 0.35 0.40 1.10 0.85 1.65 0.50 0.50 1.20 1.85 1.60 2.95 0.35 1.10 1.25 3.25 1.95 4.75 0.70 1.50 1.25 2.95 1.20 3.15 -0.05 0.20 0.25 0.50 0.65 0.65 0.40 0.20 0.75 0.60 0.75 0.95 0 0.30 0.60 1.70 1.30 3.05 0.75 1.35 1.20 2.90 1.05 3.55 -0.10 0.65 -0.10 1.05 0.05 0.90 0.35 -0.30 2.60 2.75 2.60 3.60 0 0.35 0.45 1.45 0.95 2.50 0.50 1.05 1.35 2.80 1.80 3.90 0.45 1.10 1.15 2.70 1.50 3.50 1.75 3.65 2.65 6.20 2.40 6.45 -0.20 0.15 -0.05 0.30 0.25 0.30 0.35 0 0.60 0.45 0.60 0.95 0 0.90 1.40 4 2.05 4.55 0.15 0.15 0.45 0.90 0.65 1.70 0.20 0.85 0.80 2.10 1.35 2.85 0.50 0.75 0.95 1.70 0.95 2.15 0 0.45 0.90 2.65 1.95 4.95 1.05 2.25 2.20 5 2.55 6.10 0.35 1.10 0.80 2.10 0.95 2.25 0.50 0.45 2.05 3.55 2.05 4.20 0 0.55 1.90 4.95 3 6.90 0.30 0.50 0.50 1.15 0.50 1.50 0 0.35 0.90 2.45 2 4.60 1.10 2.15 2 4.35 2 4.90 0 0.90 0.70 2.45 1.80 3.90 0.35 0.40 1.20 2.45 1.90 4.50 1.70 4.85 1.45 4.20 6.25 14.45 0.60 1.25 1.05 2.50 1.05 2.75 0 0.30 0.55 1.60 1.20 2.90 0.65 1.25 1.30 2.90 1.50 3.60 0.20 0.75 0.85 2.50 1.50 3.95 0.60 1.40 1.45 3.40 1.80 4.35 0.35 0.95 0.85 2 1.05 2.25 0.35 0.55 1.10 3.55 0.95 4.05 -0.05 0.20 0.10 0.50 0.35 0.65 0.60 0.45 1.65 2.45 1.65 3.15 0 0.35 0.50 1.65 1.15 2.90 0.60 1.25 1.55 3.70 2.05 5.50 0.55 1.80 1.15 3.45 1.40 3.75 0.20 0.25 0.40 0.85 0.40 1.30 0 0.45 0.35 1.10 0.75 1.45 0.40 0.35 0.75 1.05 0.75 1.55 0 0.55 0.20 1.35 0.50 1.85 1.05 1.90 2.10 4.65 1.90 4.85 -0.10 0.15 -0.80 -0.40 -1.50 -1.15z"/>
  <path d="M251.05 225.55 c-0.05 -0.60 1.35 -3.85 3.25 -7.65 0.40 -0.70 0.70 -1.55 0.70 -1.90 0 -0.75 3.40 -7.90 4.55 -9.55 0.50 -0.70 0.80 -1.45 0.60 -1.60 -0.25 -0.30 0.05 -1.10 2.40 -6.05 0.55 -1.10 0.95 -2.25 0.95 -2.60 0 -0.60 1.50 -3.70 2.05 -4.20 0.15 -0.15 0.65 -1.35 1.15 -2.75 0.50 -1.35 1.05 -2.95 1.30 -3.50 0.20 -0.55 0.55 -1.40 0.70 -1.90 0.45 -1.40 1.55 -0.70 1.40 0.80 -0.10 0.75 -1.05 3.05 -2.15 5.15 -1.05 2.10 -1.95 4.25 -1.95 4.75 0 0.50 -0.20 1.05 -0.50 1.20 -0.25 0.15 -0.50 0.70 -0.50 1.20 0 1.15 -1.30 3.75 -2.25 4.55 -0.40 0.35 -0.75 1.15 -0.75 1.80 0 0.60 -0.20 1.30 -0.50 1.45 -0.25 0.15 -0.50 0.70 -0.50 1.20 0 1 -2 5.15 -3.10 6.45 -0.40 0.45 -1 1.85 -1.40 3.10 -0.95 3.40 -3.65 8.95 -4.35 9 -0.30 0 -0.70 0.40 -0.80 0.90 -0.15 0.50 -0.25 0.55 -0.30 0.15z"/>
  <path d="M139.60 210.75 c-0.60 -0.75 -1.10 -1.80 -1.10 -2.30 0 -0.75 -2.80 -6.60 -5.50 -11.45 -0.20 -0.40 -0.80 -1.75 -1.25 -3 -0.50 -1.25 -1.20 -2.90 -1.55 -3.75 -0.35 -0.80 -1.40 -3.20 -2.25 -5.25 -0.85 -2.05 -2.45 -5.45 -3.50 -7.50 -1.10 -2.10 -1.95 -4.05 -1.95 -4.35 0 -0.30 -0.30 -1.20 -0.70 -2 -1.20 -2.35 -5.20 -11.80 -5.55 -13 -0.20 -0.65 -0.55 -1.15 -0.80 -1.15 -0.25 0 -0.45 -0.25 -0.45 -0.55 0 -0.65 -2 -5.50 -3.75 -9.20 -0.70 -1.35 -2.20 -4.85 -3.45 -7.75 -1.20 -2.90 -3.25 -7.70 -4.55 -10.75 -1.25 -3 -2.50 -5.55 -2.80 -5.65 -0.25 -0.10 -0.45 -0.55 -0.45 -1 0 -0.45 -0.35 -1.30 -0.75 -1.80 -0.40 -0.55 -0.75 -1.40 -0.75 -1.90 0 -0.50 -0.65 -2.20 -1.45 -3.80 -0.75 -1.55 -1.60 -3.40 -1.80 -4.10 -0.20 -0.70 -1.10 -2.95 -2 -5 -4.50 -10.10 -5.70 -12.85 -6 -14 -0.20 -0.70 -1 -2.35 -1.85 -3.65 -0.80 -1.35 -1.60 -3.15 -1.75 -4 -0.20 -0.90 -1.05 -3.15 -2 -5.10 -0.90 -1.90 -1.65 -3.75 -1.65 -4.15 0 -0.35 -0.55 -1.75 -1.25 -3.10 -0.70 -1.35 -1.25 -2.75 -1.25 -3.10 0 -0.35 -0.35 -1.30 -0.80 -2.15 -1.80 -3.25 -3.20 -6.25 -3.20 -6.85 0 -0.30 -0.75 -2.15 -1.70 -4.10 -2.85 -6 -3.70 -9.90 -3.05 -14.10 0.25 -1.95 0.75 -2.75 2.80 -4.75 1.55 -1.50 3.25 -2.65 4.60 -3 1.15 -0.35 2.40 -0.85 2.75 -1.10 0.35 -0.25 1.35 -0.55 2.20 -0.65 0.90 -0.10 1.85 -0.45 2.10 -0.70 0.30 -0.30 1.05 -0.50 1.70 -0.50 1.40 0 4.60 -3.10 4.60 -4.45 0 -0.95 -2.25 -2.25 -3.05 -1.75 -0.30 0.15 -0.85 0 -1.30 -0.35 -0.50 -0.45 -2.65 -0.75 -5.95 -0.85 -4.25 -0.20 -5.45 -0.05 -6.45 0.60 -1.05 0.70 -1.60 0.75 -2.90 0.35 -0.90 -0.30 -2.25 -0.70 -3.10 -0.95 -2.05 -0.60 14.50 -1.35 18.80 -0.85 3.25 0.40 5.45 1.80 5.45 3.50 0 1.35 -1.45 4.35 -1.95 4.05 -0.25 -0.20 -0.80 0.10 -1.15 0.65 -0.45 0.60 -3 1.80 -6.45 2.95 -9.30 3.20 -11 4.40 -11.35 8.10 -0.30 3.25 0.90 7.10 6.50 20.40 2.50 5.95 5.65 13.45 6.90 16.60 1.30 3.15 5 11.85 8.25 19.25 3.20 7.45 7.40 17.10 9.25 21.50 1.85 4.40 5.45 12.75 8 18.50 2.55 5.80 5.95 13.65 7.60 17.50 1.65 3.85 4.30 9.80 5.90 13.25 1.60 3.45 4.65 10.20 6.80 15 5.20 11.75 11.55 25 12.55 26.10 0.45 0.50 1.05 0.90 1.35 0.90 0.60 0 19.05 -36.40 24.45 -48.25 1.75 -3.85 3.95 -8.70 4.90 -10.75 2.25 -4.95 2.35 -8.75 0.25 -13.50 -0.75 -1.80 -1.75 -4.25 -2.15 -5.50 -0.40 -1.25 -1.25 -3.25 -1.90 -4.50 -0.65 -1.25 -2.20 -4.80 -3.45 -7.85 -1.25 -3.10 -4 -9.50 -6.10 -14.25 -2.10 -4.75 -6.30 -14.25 -9.30 -21.15 -7.85 -17.80 -12.85 -28.45 -16.50 -35.10 -5.25 -9.65 -9.60 -13.25 -19.65 -16.25 -6.45 -1.90 -9.25 -3.95 -9.25 -6.65 0 -3.10 1.90 -3.70 11.95 -4 6.40 -0.20 9.35 0.20 8.05 1.05 -0.40 0.25 -4 0.50 -8 0.60 -4 0.10 -7.45 0.40 -7.70 0.65 -0.30 0.25 -0.90 0.45 -1.40 0.45 -1.35 0 -1.15 2 0.35 3.65 0.80 0.85 1.80 1.35 2.65 1.35 0.80 0 1.65 0.25 1.90 0.50 0.30 0.30 1.20 0.65 2 0.80 0.80 0.15 1.65 0.45 1.90 0.75 0.30 0.25 1.05 0.45 1.75 0.45 0.75 0 1.75 0.35 2.25 0.75 0.55 0.40 1.50 0.75 2.10 0.75 0.60 0 1.35 0.35 1.75 0.80 0.35 0.45 1.60 1.45 2.75 2.25 2.60 1.75 6.90 7.75 9.45 13.15 0.30 0.55 2.10 4.30 4.05 8.30 1.95 4 4.25 9.10 5.15 11.35 0.90 2.25 1.95 4.35 2.35 4.70 0.40 0.30 0.70 0.95 0.70 1.40 0 0.45 0.35 1.25 0.75 1.75 0.40 0.55 0.75 1.40 0.75 1.90 0 0.50 0.20 1.30 0.50 1.80 0.25 0.45 0.80 1.65 1.25 2.60 0.40 0.95 1.30 2.65 2 3.75 0.65 1.10 1.20 2.60 1.25 3.40 0 0.75 0.25 1.35 0.50 1.35 0.30 0 0.50 0.40 0.50 0.95 0 0.50 0.35 1.20 0.75 1.55 0.40 0.35 0.75 1.05 0.75 1.55 0 0.55 0.20 0.95 0.45 0.95 0.25 0 0.60 1 0.75 2.20 0.20 1.20 0.90 2.90 1.55 3.85 0.70 0.90 1.25 1.95 1.25 2.30 0 0.35 0.25 0.65 0.50 0.65 0.30 0 0.50 0.45 0.50 0.95 0 0.55 0.20 1.10 0.45 1.25 0.25 0.20 0.60 1.20 0.80 2.30 0.20 1.10 0.75 2.50 1.30 3.20 0.50 0.65 0.95 1.55 0.95 1.95 0 0.40 0.35 1 0.75 1.35 0.40 0.35 0.75 1.05 0.75 1.60 0 0.55 0.80 2.80 1.75 4.95 0.95 2.20 1.75 4.30 1.75 4.65 0 0.40 0.35 0.95 0.75 1.30 0.40 0.35 0.75 1.05 0.75 1.55 0 0.55 0.25 0.95 0.50 0.95 0.30 0 0.50 0.25 0.50 0.55 0 0.30 0.30 1.25 0.65 2.10 1.95 4.55 2.45 9.90 1.30 13.40 -0.35 0.95 -3.35 7.45 -6.70 14.45 -3.35 7 -6.30 13.30 -6.50 14 -0.50 1.75 -15.60 31.50 -16.65 32.85 -0.50 0.65 -1.65 1.25 -2.90 1.45 -1.80 0.25 -2.15 0.15 -3.10 -1.05z"/>
  <path d="M239.15 210.65 c-1.10 -0.15 -1.70 -0.55 -1.95 -1.30 -0.15 -0.60 -0.70 -1.55 -1.20 -2.10 -0.50 -0.55 -1.10 -1.65 -1.30 -2.45 -0.45 -1.80 -6.25 -13.50 -6.80 -13.70 -0.20 -0.10 -0.40 -0.55 -0.40 -1 0 -0.45 -0.35 -1.30 -0.75 -1.80 -0.40 -0.55 -0.75 -1.40 -0.75 -1.95 0 -0.50 -0.50 -1.65 -1.10 -2.50 -1.55 -2.10 -2.40 -3.80 -2.40 -4.65 0 -0.40 -0.65 -2 -1.45 -3.55 -0.75 -1.60 -1.65 -3.45 -2 -4.15 -0.30 -0.70 -0.75 -1.60 -1 -2 -1.30 -2.30 -2.05 -4 -2.05 -4.70 0 -0.45 -0.65 -2.10 -1.45 -3.70 -0.75 -1.55 -1.70 -3.65 -2 -4.65 -0.30 -1 -1 -2.20 -1.55 -2.70 -0.50 -0.45 -1.05 -1.70 -1.25 -2.80 -0.20 -1.05 -0.75 -2.45 -1.30 -3.15 -0.50 -0.65 -0.95 -1.45 -0.95 -1.75 0 -0.55 -0.40 -1.55 -2.95 -7.15 -0.85 -1.80 -1.65 -3.95 -1.85 -4.70 -0.20 -0.75 -0.65 -1.95 -1 -2.65 -0.40 -0.70 -0.70 -2 -0.70 -2.90 0 -0.85 -0.25 -1.75 -0.55 -1.95 -2 -1.25 2.05 -11 12 -28.80 1.60 -2.90 3.05 -3.80 3.05 -1.90 0 0.50 -0.60 1.80 -1.30 2.85 -0.70 1.05 -3.05 5.40 -5.20 9.65 -2.20 4.25 -4.75 9.05 -5.70 10.70 -1.20 1.90 -1.80 3.55 -1.80 4.70 0 2.25 1.45 7.60 2.35 8.65 0.35 0.40 0.65 0.95 0.65 1.15 0 0.20 0.55 1.55 1.20 2.95 0.65 1.45 2.35 5.20 3.70 8.35 5.55 12.50 9.10 20.55 11.85 26.50 1.55 3.45 4.10 9.05 5.65 12.45 4.10 9.05 10.90 22.60 12.05 24.05 1.95 2.45 2.45 1.65 11 -17.25 2.85 -6.35 6.70 -14.75 8.55 -18.75 1.90 -4 3.95 -8.50 4.55 -10 0.65 -1.50 1.65 -3.55 2.20 -4.50 0.60 -0.95 1.40 -2.65 1.75 -3.75 0.35 -1.10 2.85 -6.85 5.50 -12.75 2.65 -5.90 5.60 -12.55 6.55 -14.70 4.30 -9.95 6.75 -14.95 7.20 -14.85 0.95 0.20 0.30 2.60 -1.95 7.50 -1.30 2.65 -2.30 5.05 -2.30 5.25 0 0.20 -1.05 2.45 -2.30 4.95 -1.30 2.55 -2.85 6 -3.50 7.75 -0.65 1.70 -2.10 4.90 -3.20 7.10 -1.10 2.20 -2 4.20 -2 4.50 0 0.25 -0.90 2.45 -2.05 4.85 -1.15 2.45 -2.50 5.45 -3 6.75 -0.50 1.30 -2 4.55 -3.35 7.25 -1.35 2.70 -2.65 5.45 -2.85 6.15 -0.20 0.70 -1.70 4 -3.30 7.35 -1.65 3.30 -2.95 6.30 -2.95 6.55 0 0.30 -1.10 2.85 -2.50 5.65 -1.35 2.80 -2.50 5.60 -2.50 6.20 0 0.65 -0.35 1.40 -0.75 1.75 -0.40 0.35 -0.75 0.80 -0.75 1.05 0 0.35 -3.35 7.75 -3.70 8.25 -0.20 0.25 -2.85 0.50 -4.15 0.35z"/>
  <path d="M142.25 206.10 c-0.30 -0.20 -1 -1.45 -1.65 -2.85 -0.65 -1.35 -1.40 -2.95 -1.70 -3.50 -2.15 -3.90 -3.90 -7.65 -3.90 -8.35 0 -0.90 -1.55 -4.05 -2.10 -4.30 -0.25 -0.10 -0.40 -0.40 -0.40 -0.70 0 -0.25 -0.90 -2.30 -2 -4.50 -1.10 -2.25 -2 -4.30 -2 -4.60 0 -0.30 -0.70 -1.90 -1.50 -3.50 -1.75 -3.40 -1.55 -4.30 0.40 -1.80 1.75 2.20 2.60 3.90 2.60 5.05 0 0.50 0.25 1.05 0.50 1.20 0.30 0.15 0.50 0.70 0.50 1.20 0 1.05 1.35 3.90 2 4.30 0.60 0.35 1.70 2.85 2.50 5.75 0.40 1.25 1.10 2.70 1.60 3.30 0.50 0.55 0.90 1.35 0.90 1.80 0 1 1.35 3.65 2.25 4.40 0.40 0.35 0.75 1 0.75 1.45 0 1.40 1.20 3.55 2 3.55 0.40 0 1.20 -1.10 1.80 -2.40 1.85 -4.10 2.20 -4.80 3.15 -6.35 0.55 -0.80 1 -1.95 1 -2.55 0.05 -0.55 0.50 -1.45 1.05 -1.95 0.55 -0.50 1 -1.40 1 -2 0 -0.60 0.45 -1.50 1 -2 0.55 -0.50 1 -1.20 1 -1.50 0 -0.35 0.35 -0.90 0.75 -1.25 0.40 -0.35 0.65 -0.80 0.50 -1 -0.10 -0.20 0.15 -0.80 0.65 -1.30 0.45 -0.50 0.95 -1.60 1 -2.45 0.10 -0.80 0.40 -1.70 0.65 -1.95 0.25 -0.30 0.45 -1 0.45 -1.55 0 -1.15 1.40 -2.75 2.40 -2.75 0.55 0 0 1.75 -1.45 4.60 -0.25 0.50 -0.45 1.20 -0.45 1.60 0 0.35 -0.30 0.95 -0.65 1.25 -0.40 0.30 -1 1.45 -1.35 2.55 -0.35 1.10 -0.85 2 -1.10 2 -0.20 0 -0.35 0.15 -0.30 0.40 0.05 0.35 -2.10 5.05 -3.05 6.60 -0.60 1 -3.35 7 -3.75 8.20 -0.15 0.50 -0.60 0.80 -1 0.65 -0.45 -0.20 -0.60 0 -0.45 0.65 0.25 0.85 -2 5 -2.75 5 -0.20 0 -0.60 -0.20 -0.85 -0.40z"/>
  <path d="M239.65 204.90 c-1.45 -2.30 -3.65 -6.75 -3.65 -7.45 0 -0.25 -0.20 -0.45 -0.50 -0.45 -0.25 0 -0.50 -0.40 -0.50 -0.95 0 -0.50 -0.35 -1.20 -0.75 -1.55 -0.40 -0.35 -0.75 -1.05 -0.75 -1.50 0 -0.50 -0.15 -1 -0.35 -1.10 -0.55 -0.20 -2.15 -3.35 -2.15 -4.20 0 -0.40 -0.20 -0.70 -0.50 -0.70 -0.25 0 -0.50 -0.45 -0.50 -0.95 0 -0.55 -0.20 -1.15 -0.50 -1.30 -0.45 -0.30 -1.95 -3.35 -3.80 -7.75 -0.45 -0.95 -1.10 -2.40 -1.50 -3.15 -0.40 -0.80 -0.70 -1.75 -0.70 -2.15 0 -0.40 -0.20 -0.70 -0.45 -0.70 -0.40 0 -1.05 -1.70 -1 -2.70 0.05 -0.25 -0.15 -0.60 -0.40 -0.75 -0.70 -0.50 -3.15 -5.55 -3.15 -6.50 0 -0.45 -0.25 -1.10 -0.60 -1.45 -0.45 -0.45 -0.45 -0.60 0 -0.60 0.35 0 0.70 0 0.85 0 0.15 0 0.25 0.15 0.20 0.30 0 0.20 0.15 0.50 0.40 0.65 0.50 0.35 1.65 3.60 1.65 4.65 0 0.45 0.60 1.55 1.35 2.45 1.90 2.25 3.65 5.85 3.65 7.55 0 0.75 0.25 1.40 0.50 1.40 0.30 0 0.50 0.40 0.50 0.95 0 0.50 0.35 1.20 0.75 1.55 0.80 0.65 3.25 5.40 3.25 6.25 0 0.80 1.45 3.65 2.05 4 0.50 0.35 2.95 5.50 2.95 6.25 0 0.65 1 2.40 2.05 3.75 0.45 0.55 1.10 1.75 1.50 2.65 0.40 0.85 0.80 1.60 0.95 1.60 0.40 0 1.50 -2.60 1.50 -3.50 0 -0.45 0.45 -1.25 1 -1.75 0.55 -0.50 1 -1.20 1 -1.60 0 -0.35 0.25 -0.65 0.55 -0.65 0.25 0 0.35 -0.30 0.15 -0.60 -0.25 -0.50 -0.20 -0.50 0.30 -0.05 0.50 0.45 0.45 1 -0.45 2.65 -0.55 1.10 -1.05 2.35 -1.05 2.70 0 0.95 -2.50 5.30 -3 5.30 -0.25 0 -0.60 -0.30 -0.85 -0.60z"/>
  <path d="M245.95 193.65 c0.50 -0.95 0.45 -1.10 -0.20 -0.80 -0.65 0.20 -0.60 -0.05 0.20 -1.55 0.60 -1 1.05 -2.15 1.05 -2.50 0 -0.95 1.40 -3.60 2.25 -4.30 0.40 -0.35 0.75 -1 0.75 -1.45 0 -0.50 1.35 -3.50 3 -6.70 1.65 -3.25 3 -6.30 3 -6.80 0 -1.15 1.30 -4.40 1.95 -4.75 0.70 -0.45 3.05 -5.35 3.05 -6.35 0 -0.50 0.25 -1.05 0.50 -1.20 0.30 -0.15 0.50 -0.80 0.50 -1.45 0 -0.65 0.45 -1.55 1 -2.05 0.55 -0.50 1 -1.40 1 -2 0 -0.60 0.45 -1.50 1 -2 0.55 -0.50 1 -1.40 1 -2.05 0 -0.65 0.25 -1.30 0.50 -1.45 0.30 -0.15 0.50 -0.65 0.50 -1.10 0 -0.45 1.20 -3.30 2.70 -6.35 1.50 -3.05 2.90 -6.15 3.10 -6.95 0.15 -0.75 0.50 -1.50 0.75 -1.65 0.25 -0.15 0.45 -0.75 0.45 -1.40 0 -0.65 0.45 -1.55 1 -2.05 0.55 -0.50 1 -1.40 1 -2.05 0 -0.65 0.25 -1.30 0.50 -1.45 0.30 -0.15 0.50 -0.85 0.50 -1.45 0 -0.65 0.35 -1.45 0.75 -1.80 0.75 -0.65 2.25 -3.35 2.25 -4.10 0 -0.20 0.40 -1.35 0.95 -2.55 0.50 -1.15 1.15 -2.70 1.45 -3.45 0.35 -0.80 0.90 -1.40 1.35 -1.40 0.85 0 1 0.80 0.25 1.25 -0.25 0.15 -0.50 1 -0.50 1.85 0 1.10 -0.20 1.45 -0.70 1.25 -0.50 -0.20 -0.65 -0.05 -0.50 0.40 0.25 0.55 -1 3.30 -2.70 6 -0.20 0.30 -0.35 0.60 -0.40 0.75 -0.50 2.75 -1.95 6.30 -3 7.50 -0.35 0.45 -1.45 3 -2.40 5.65 -0.95 2.70 -2.20 5.45 -2.75 6.20 -0.60 0.70 -1.05 1.65 -1.05 2.10 0 0.45 -0.35 1.25 -0.75 1.75 -0.40 0.55 -0.75 1.35 -0.75 1.75 0 0.45 -1.10 3.05 -2.50 5.80 -1.35 2.75 -2.50 5.45 -2.55 6 0 0.55 -0.45 1.70 -1 2.50 -0.50 0.85 -1.10 1.85 -1.25 2.25 -0.20 0.40 -1.20 2.55 -2.25 4.80 -1.10 2.20 -1.95 4.30 -1.95 4.60 0 0.30 -0.65 1.85 -1.45 3.45 -0.80 1.60 -1.90 3.95 -2.50 5.25 -0.60 1.30 -1.25 2.50 -1.55 2.65 -0.25 0.15 -0.50 0.85 -0.50 1.45 0 0.65 -0.45 1.70 -0.95 2.40 -0.55 0.65 -1.45 2.55 -2 4.15 -0.60 1.65 -1.40 3.30 -1.85 3.75 -0.75 0.70 -0.75 0.65 -0.25 -0.35z"/>
  <path d="M270 182.35 c0 -0.35 0.55 -1.85 1.25 -3.25 0.70 -1.45 1.25 -2.90 1.25 -3.25 0 -1.10 1.55 -3.90 2.35 -4.20 1.20 -0.45 1.25 0.15 0.15 2.05 -0.55 1 -1 2.15 -1 2.50 0 0.35 -0.70 2.05 -1.60 3.75 -1.50 2.90 -2.40 3.80 -2.40 2.40z"/>
  <path d="M159 171.55 c0 -0.20 0.45 -1 1 -1.70 0.55 -0.70 1 -1.60 1 -2.05 0 -0.45 0.20 -0.80 0.40 -0.80 0.20 0 0.40 -0.50 0.45 -1.05 0.05 -0.60 0.55 -1.55 1.10 -2.15 0.60 -0.60 1.05 -1.30 1.05 -1.55 0 -0.25 0.50 -1 1.15 -1.65 0.65 -0.75 0.90 -1.30 0.55 -1.45 -0.45 -0.15 -0.45 -0.50 0 -1.40 0.30 -0.70 0.70 -1.25 0.95 -1.25 0.20 0 0.35 -0.65 0.35 -1.45 0 -1 0.45 -1.80 1.35 -2.50 1.60 -1.30 2.05 -1.05 0.95 0.55 -0.45 0.60 -0.80 1.60 -0.80 2.20 0 0.60 -0.30 1.35 -0.70 1.70 -0.40 0.30 -0.60 0.95 -0.45 1.35 0.25 0.60 0.10 0.75 -0.40 0.55 -0.50 -0.20 -0.75 0.15 -0.80 1.25 -0.05 0.85 -0.30 1.65 -0.55 1.80 -0.25 0.15 -0.65 0.85 -0.85 1.55 -0.20 0.70 -0.65 1.60 -0.95 2 -0.35 0.40 -1.25 2.05 -2.05 3.65 -0.75 1.55 -1.70 2.85 -2.10 2.85 -0.35 0 -0.65 -0.20 -0.65 -0.45z"/>
  <path d="M275.05 170.15 c0.35 -0.50 0.70 -0.95 0.75 -1.05 0.05 -0.10 0.20 0.20 0.40 0.65 0.15 0.45 0.10 0.65 -0.20 0.50 -0.30 -0.15 -0.50 -0.05 -0.50 0.20 0 0.30 -0.25 0.55 -0.55 0.55 -0.40 0 -0.35 -0.30 0.10 -0.85z"/>
  <path d="M123.85 167.40 c-0.70 -1.45 -1.45 -3.30 -1.65 -4.10 -0.20 -0.80 -1.10 -2.95 -2 -4.75 -0.95 -1.80 -1.70 -3.50 -1.70 -3.80 0 -0.35 -0.55 -1.70 -1.25 -3.05 -0.70 -1.35 -1.25 -2.85 -1.25 -3.35 0 -0.50 -0.20 -0.75 -0.50 -0.60 -0.25 0.15 -0.50 0 -0.50 -0.45 0 -0.40 -0.30 -1.35 -0.70 -2.15 -0.40 -0.75 -0.95 -1.95 -1.20 -2.65 -0.25 -0.70 -1.05 -2.50 -1.80 -4 -0.70 -1.50 -1.50 -3.70 -1.80 -4.85 -0.30 -1.15 -0.85 -2.45 -1.25 -2.85 -0.40 -0.40 -0.75 -1.15 -0.75 -1.70 0 -0.55 -0.45 -1.55 -1.05 -2.25 -0.55 -0.75 -1.15 -2.15 -1.30 -3.10 -0.15 -0.95 -0.45 -1.75 -0.60 -1.75 -0.65 0 -2.85 -6.05 -2.65 -7.10 0.05 -0.25 -0.10 -0.40 -0.30 -0.40 -0.20 0 -1.05 -1.45 -1.85 -3.25 -0.80 -1.80 -1.60 -3.25 -1.85 -3.25 -0.20 0 -0.40 -0.45 -0.40 -1 0 -0.60 -0.35 -1.70 -0.75 -2.50 -0.45 -0.85 -0.60 -1.50 -0.45 -1.50 0.20 0 0 -0.40 -0.40 -0.85 -0.40 -0.50 -0.90 -1.55 -1.05 -2.40 l-0.30 -1.50 0.65 1.40 c0.30 0.75 0.80 1.20 1.05 1 0.20 -0.25 0.25 -0.10 0.05 0.25 -0.20 0.30 -0.10 0.60 0.15 0.60 0.30 0 0.55 0.30 0.55 0.65 0 0.40 0.45 1.10 1 1.60 0.55 0.50 1 1.30 1 1.80 0 0.50 0.45 1.70 1 2.70 0.55 1 1 2.20 1 2.75 0 0.50 0.25 1.10 0.55 1.25 0.25 0.20 0.40 0.60 0.30 0.90 -0.10 0.35 0.35 1 1 1.50 0.65 0.50 1.15 1.45 1.15 2.10 0 0.65 0.25 1.35 0.50 1.50 0.30 0.15 0.50 0.85 0.50 1.50 0 0.65 0.25 1.35 0.50 1.50 0.30 0.15 0.50 0.85 0.50 1.45 0 0.65 0.35 1.45 0.75 1.80 0.85 0.70 2.25 3.35 2.25 4.25 0 0.30 0.45 1.50 1 2.65 0.55 1.10 1 2.50 1 3 0 1.10 1.35 3.95 2.05 4.35 0.60 0.40 1.95 3.60 1.95 4.70 0 1.10 2.35 5.80 3.25 6.55 0.40 0.35 0.75 1.15 0.75 1.80 0 0.60 0.25 1.30 0.50 1.45 0.30 0.15 0.50 0.70 0.50 1.20 0 1.15 1.30 3.75 2.25 4.55 0.40 0.35 0.75 1.25 0.75 2 0 0.75 0.65 2.65 1.45 4.20 0.85 1.55 1.30 2.80 1 2.80 -0.30 0 -0.30 0.40 0.05 1 0.30 0.55 0.35 1 0.10 1 -0.20 0 -1 -1.20 -1.75 -2.60z"/>
  <path d="M276.05 168.15 c-0.05 -0.30 0.15 -0.70 0.40 -0.85 0.25 -0.15 0.60 -0.90 0.75 -1.65 0.70 -2.80 3.30 -7.65 4.15 -7.65 0.65 0 0.70 0.15 0.25 0.60 -0.35 0.35 -0.60 0.95 -0.60 1.35 0 1.25 -3.20 7.50 -3.85 7.55 -0.30 0 -0.70 0.30 -0.80 0.65 -0.20 0.45 -0.30 0.45 -0.30 0z"/>
  <path d="M217.05 157.40 c-0.60 -0.60 -1.05 -1.50 -1.05 -1.95 0 -0.50 -0.20 -1.05 -0.50 -1.20 -0.25 -0.15 -0.50 -0.85 -0.50 -1.45 0 -0.65 -0.35 -1.45 -0.75 -1.80 -0.40 -0.35 -0.75 -0.90 -0.75 -1.25 0 -0.35 -0.80 -2.10 -1.75 -3.95 -0.95 -1.85 -1.75 -3.75 -1.75 -4.20 0 -0.45 -0.35 -1.30 -0.75 -1.80 -0.40 -0.55 -0.75 -1.40 -0.75 -1.90 0 -0.50 -0.20 -0.90 -0.50 -0.90 -0.25 0 -0.50 -0.40 -0.50 -0.85 0 -0.50 -0.35 -1.35 -0.75 -1.85 -0.85 -1.15 -1 -2.80 -0.20 -2.80 0.25 0 0.40 0.20 0.25 0.45 -0.15 0.20 0.25 0.90 0.90 1.50 0.65 0.60 1.45 2.05 1.80 3.20 0.40 1.15 0.85 2.30 1.10 2.60 0.20 0.25 0.40 0.80 0.40 1.25 0 0.95 2.05 5.15 3.15 6.40 0.75 0.90 1.35 2.85 1.60 5.55 0.10 0.90 0.45 1.85 0.75 2.05 0.35 0.25 0.50 0.75 0.35 1.25 -0.20 0.45 -0.15 0.70 0.10 0.55 0.20 -0.15 0.80 0.15 1.25 0.65 0.55 0.60 0.65 1.05 0.35 1.25 -0.25 0.20 -0.95 -0.20 -1.50 -0.80z"/>
  <path d="M281.20 157 c1.05 -3.45 1.75 -5.10 3.05 -7.50 0.85 -1.50 2 -3.80 2.55 -5.10 0.50 -1.35 1.10 -2.40 1.35 -2.40 0.20 0 0.35 -0.30 0.35 -0.70 0 -0.35 0.55 -1.70 1.25 -3 0.70 -1.30 1.25 -2.65 1.25 -3.05 0 -1.40 3.05 -7.30 3.60 -6.95 0.35 0.20 0.40 0.10 0.20 -0.25 -0.40 -0.60 4.50 -11.15 5.30 -11.45 0.20 -0.10 0.40 -0.40 0.40 -0.70 0 -1.10 3.50 -7.95 3.95 -7.70 0.25 0.15 0.35 -0.10 0.20 -0.65 -0.15 -0.50 0.05 -1.10 0.40 -1.35 0.45 -0.25 0.55 -0.10 0.30 0.45 -0.15 0.45 -0.10 0.85 0.20 0.95 0.55 0.20 -1.75 5.05 -2.80 5.90 -0.40 0.35 -0.75 1 -0.75 1.45 0 1.20 -3.30 7.55 -4.85 9.25 -0.70 0.75 -1.30 2 -1.35 2.75 0 0.70 -0.90 2.95 -1.90 5 -1.05 2.05 -1.90 4.10 -1.90 4.60 0 0.50 -0.20 1.05 -0.50 1.20 -0.25 0.15 -0.50 0.80 -0.55 1.40 0 0.60 -0.40 1.70 -0.85 2.40 -0.45 0.70 -1.35 2.05 -1.95 3 -0.60 0.95 -1.25 1.95 -1.50 2.20 -0.20 0.30 -0.45 0.85 -0.55 1.20 -0.10 0.40 -0.60 1.60 -1.15 2.70 -0.50 1.15 -0.95 2.35 -0.95 2.70 0 0.35 -0.20 0.65 -0.50 0.65 -0.25 0 -0.50 0.35 -0.50 0.75 0 0.40 -0.20 0.75 -0.40 0.75 -0.25 0 -0.70 0.50 -1.05 1.15 -0.30 0.60 -0.45 0.75 -0.35 0.35z"/>
  <path d="M170.70 148.35 c-0.40 -0.45 -0.30 -1 0.35 -2.20 0.85 -1.55 0.85 -1.65 -0.10 -3.60 -0.50 -1.10 -0.95 -2.35 -0.95 -2.75 0 -0.40 -0.20 -0.90 -0.50 -1.05 -0.25 -0.15 -0.50 -0.80 -0.50 -1.45 0 -0.60 -0.20 -1.30 -0.45 -1.55 -0.30 -0.30 -0.60 -1.05 -0.70 -1.75 -0.15 -0.70 -0.85 -2.45 -1.60 -3.90 -0.70 -1.40 -1.20 -2.80 -1 -3.05 0.15 -0.25 -0.10 -0.85 -0.55 -1.25 -0.45 -0.45 -0.65 -1.15 -0.50 -1.55 0.15 -0.40 0 -0.70 -0.30 -0.60 -0.95 0.20 -3.95 -6.45 -3.80 -8.40 0.15 -1.65 0.35 -1.60 0.95 0.25 0.30 0.85 0.75 1.50 1 1.50 0.25 0 0.45 0.45 0.45 1 0 0.55 0.20 1.40 0.50 1.90 0.70 1.30 3 6.60 3 6.95 0 0.20 0.30 0.70 0.70 1.10 1.05 1.20 3.45 8.45 3.15 9.55 -0.15 0.55 -0.05 0.90 0.15 0.75 0.25 -0.15 1.15 1.20 2.05 3 l1.55 3.25 -1.05 2.25 c-1.15 2.50 -1.10 2.45 -1.85 1.60z"/>
  <path d="M203.50 125.05 c0 -0.85 0.90 -3.45 2 -5.80 1.10 -2.35 2 -4.50 2 -4.80 0 -0.25 0.15 -0.45 0.40 -0.45 0.20 0 0.80 -0.95 1.30 -2.15 0.55 -1.15 1.30 -2.45 1.65 -2.90 1.20 -1.45 9.40 -17.15 10.30 -19.75 0.45 -1.25 1.50 -3 2.45 -4.05 0.65 -0.75 4.90 -9.35 4.90 -9.90 0 -0.45 3.10 -4.75 3.45 -4.75 0.20 0 0.35 -0.50 0.40 -1.05 0.05 -0.60 0.40 -1.45 0.80 -1.90 0.40 -0.45 1.20 -1.90 1.85 -3.30 0.65 -1.35 1.65 -3.15 2.20 -4 0.60 -0.80 1.50 -2.40 2.05 -3.50 0.55 -1.10 1.50 -2.65 2.15 -3.40 0.60 -0.80 1.10 -1.65 1.10 -1.95 0 -2.20 12.75 -14.40 15.05 -14.40 0.30 0 1.25 -0.30 2.10 -0.65 2.70 -1.15 5.10 -1.85 6.45 -1.85 0.75 0 1.95 -0.30 2.75 -0.70 0.75 -0.40 2 -0.95 2.75 -1.25 2.45 -0.95 3.15 -2.95 2.95 -8.40 0 -1.40 -0.30 -2.15 -0.70 -2.15 -0.35 0 -1.10 -0.35 -1.65 -0.75 -0.85 -0.65 -0.80 -0.70 0.75 -0.25 2.25 0.60 2.40 1 2.85 5.40 l0.30 3.70 -1.90 1.95 c-1.10 1.10 -2.40 1.95 -3 1.95 -0.65 0 -1.30 0.25 -1.45 0.50 -0.15 0.30 -1 0.50 -1.80 0.50 -0.85 0 -2.20 0.40 -3.10 0.85 -0.90 0.45 -1.80 0.90 -2.10 0.95 -1.30 0.20 -5.30 1.75 -7.25 2.75 -2.35 1.25 -9.50 8.15 -9.50 9.20 0 0.35 -0.35 0.90 -0.75 1.25 -0.45 0.35 -1.25 1.65 -1.75 2.80 -0.55 1.20 -1.20 2.30 -1.50 2.45 -0.30 0.15 -0.95 1.25 -1.45 2.40 -0.55 1.20 -1.45 2.55 -2 3.05 -1.25 1.15 -2.55 3.60 -2.55 4.80 0 0.45 -0.40 1.20 -0.90 1.65 -0.50 0.45 -1.20 1.60 -1.60 2.60 -0.40 0.95 -0.95 1.75 -1.35 1.75 -0.75 0 -1.80 1.85 -1.40 2.50 0.15 0.25 0.05 0.55 -0.25 0.75 -0.25 0.15 -0.50 0.80 -0.50 1.45 0 0.65 -0.45 1.55 -1 2.05 -0.55 0.50 -1 1.20 -1 1.55 0 0.35 -0.50 0.95 -1.10 1.25 -0.65 0.35 -0.90 0.70 -0.60 0.80 0.80 0.25 -1.40 4.60 -3.25 6.35 -0.80 0.80 -1.40 1.65 -1.25 2 0.20 0.55 -8.75 18.80 -9.95 20.25 -0.40 0.45 -1.30 2.05 -2 3.55 -0.75 1.50 -2 3.50 -2.85 4.45 -1.05 1.20 -1.40 2 -1.20 2.80 0.15 0.65 0.05 1.30 -0.25 1.45 -0.30 0.20 -0.55 1.15 -0.55 2.10 0 1.20 -0.25 1.70 -0.75 1.70 -0.50 0 -0.75 -0.50 -0.75 -1.45z"/>
  <path d="M158.75 112.10 c-0.55 -0.75 -0.95 -1.50 -0.85 -1.70 0.05 -0.25 -0.10 -0.40 -0.35 -0.40 -0.65 0 -2.45 -4.05 -2.60 -6 -0.10 -0.95 -0.35 -1.85 -0.50 -2 -0.20 -0.15 -0.45 -0.60 -0.55 -1 -0.10 -0.40 -0.65 -1.30 -1.30 -2 -0.65 -0.70 -1.30 -1.85 -1.45 -2.65 -0.15 -0.75 -0.50 -1.50 -0.70 -1.65 -0.25 -0.15 -0.45 -0.80 -0.45 -1.45 0 -0.65 -0.20 -1.35 -0.50 -1.50 -0.25 -0.15 -0.50 -0.80 -0.50 -1.45 0 -0.65 -0.45 -1.55 -0.95 -2 -0.85 -0.75 -2.35 -4.95 -2.15 -5.90 0.05 -0.25 -0.10 -0.40 -0.40 -0.40 -0.25 0 -0.50 -0.55 -0.50 -1.25 0 -0.65 -0.65 -1.95 -1.40 -2.85 -2.20 -2.55 -3.90 -6.85 -4.25 -10.50 -0.05 -0.45 -0.20 -0.75 -0.40 -0.60 -0.75 0.45 -3.95 -5.15 -3.95 -6.85 0 -0.50 -0.25 -1.05 -0.50 -1.20 -0.30 -0.20 -0.40 -0.50 -0.25 -0.70 0.10 -0.25 -0.20 -0.80 -0.75 -1.30 -1.20 -1.10 -2.50 -3.55 -2.50 -4.75 0 -0.45 -0.45 -1.25 -1 -1.75 -0.55 -0.50 -1 -1.15 -1 -1.50 0 -0.30 -0.65 -1.20 -1.50 -2 -0.80 -0.80 -1.50 -1.65 -1.50 -1.95 0 -0.70 -4.05 -4.80 -4.80 -4.80 -0.30 0 -0.95 -0.45 -1.45 -1 -0.55 -0.60 -1.55 -1 -2.55 -1 -0.90 0 -1.80 -0.20 -1.95 -0.50 -0.15 -0.30 -0.75 -0.50 -1.25 -0.50 -0.55 0 -1.75 -0.45 -2.75 -1 -1 -0.55 -2.20 -1 -2.75 -1 -0.50 0 -1.10 -0.20 -1.25 -0.50 -0.15 -0.25 -0.85 -0.50 -1.55 -0.50 -0.70 0 -1.10 -0.20 -0.95 -0.50 0.15 -0.25 -0.05 -0.50 -0.50 -0.50 -0.40 0 -0.95 -0.50 -1.20 -1.15 -0.25 -0.65 -0.80 -1.45 -1.25 -1.80 -0.90 -0.75 -1.15 -6.25 -0.30 -6.80 0.30 -0.15 0.50 -0.75 0.50 -1.30 0 -0.85 0.35 -0.95 3.40 -0.95 2.35 0 3.15 0.15 2.60 0.50 -0.40 0.25 -1.45 0.50 -2.35 0.50 -2.10 0 -3.15 1.55 -3.15 4.50 0.05 2.80 2.15 6.15 4 6.40 0.70 0.10 1.45 0.40 1.75 0.65 0.25 0.25 0.80 0.45 1.25 0.45 0.40 0 1.40 0.35 2.20 0.75 0.75 0.40 1.90 0.75 2.50 0.75 0.60 0 1.35 0.25 1.60 0.50 0.30 0.30 1.15 0.65 1.95 0.80 1.95 0.35 6.15 3.30 8.30 5.80 2.15 2.60 6.45 8.75 6.45 9.25 0 0.60 2.70 5.90 3.15 6.05 0.20 0.10 0.35 0.60 0.35 1.10 0 0.45 0.35 1.15 0.75 1.50 0.40 0.35 0.75 1.05 0.75 1.55 0 0.55 0.25 0.95 0.50 0.95 0.30 0 0.50 0.25 0.50 0.50 0 0.30 0.55 1.65 1.20 3 0.70 1.40 1.40 3.20 1.55 4 0.20 0.85 0.55 1.50 0.80 1.50 0.25 0 0.45 0.40 0.45 0.90 0 0.45 0.35 1.55 0.80 2.35 2.30 4.20 4.20 8 4.20 8.35 0 0.35 2.15 5.30 3.05 7 0.25 0.50 0.45 1.30 0.45 1.85 0 0.50 0.35 1.20 0.75 1.55 0.40 0.35 0.75 0.80 0.75 1.05 0 0.25 0.80 2.05 1.75 4 0.95 2 1.75 4.15 1.75 4.80 0 0.65 0.35 1.30 0.75 1.45 0.40 0.20 0.75 0.85 0.75 1.50 0 0.65 0.25 1.20 0.50 1.20 0.30 0 0.50 0.40 0.50 0.90 0 0.50 0.35 1.40 0.80 2 1.15 1.70 0.65 2.80 -0.55 1.20z"/>
  <path d="M191.30 107.90 c-3.90 -8.45 -6.85 -14.95 -7.70 -17.15 -1.50 -3.80 -5.25 -12.10 -7.20 -16 -0.95 -1.90 -2.05 -4.40 -2.40 -5.50 -0.35 -1.10 -1.15 -2.95 -1.80 -4.10 -0.65 -1.15 -1.20 -2.45 -1.20 -2.90 0 -0.45 -0.35 -1.45 -0.75 -2.15 -0.80 -1.45 -3 -6.90 -5.30 -13.35 -2.95 -8.10 -1.45 -11.10 7 -14.10 1.80 -0.65 3.75 -1.05 4.30 -0.95 0.60 0.15 1.65 -0.05 2.45 -0.45 0.80 -0.40 1.80 -0.75 2.30 -0.75 1.30 0 4.50 -3.15 4.50 -4.40 0 -0.95 -0.65 -1.40 -2.85 -1.85 -0.50 -0.10 -1.55 -0.40 -2.35 -0.75 -1.75 -0.65 -10.70 -0.55 -11.85 0.15 -1.05 0.65 -8.75 -0.05 -8.05 -0.75 0.25 -0.25 5.20 -0.50 11.65 -0.55 12.20 -0.10 14.10 0.20 15 2.55 0.70 1.80 0.05 4.60 -1.05 4.60 -0.50 0 -1.60 0.65 -2.40 1.45 -1.15 1.20 -2.20 1.60 -5.65 2.20 -8.30 1.45 -12.95 4.10 -12.95 7.35 0 2.15 2 7.70 6.10 17.25 1.95 4.40 4.25 9.90 5.20 12.20 2.15 5.30 4.45 10.50 6.20 14.05 0.75 1.50 1.55 3.30 1.75 4 0.20 0.70 1.55 3.75 3.05 6.75 1.45 3.05 3.40 7.30 4.35 9.45 1.95 4.65 2.85 5.50 4.30 4.05 0.55 -0.55 2.60 -4.05 4.55 -7.75 2 -3.70 3.90 -7.30 4.30 -8 0.40 -0.70 0.70 -1.55 0.70 -1.95 0 -0.35 1.65 -4.15 3.70 -8.50 5.05 -10.80 12.55 -28.25 13.50 -31.50 2 -6.80 0.45 -11.15 -5.45 -15.35 -1.20 -0.90 -1.40 -1.20 -0.85 -1.75 0.50 -0.55 0.90 -0.50 2.25 0.25 4.05 2.35 5.70 4.80 6.15 9.20 0.35 3 -0.75 9.85 -2.05 12.85 -0.35 0.85 -0.80 2.05 -1 2.75 -0.20 0.70 -1.25 3 -2.30 5.10 -1.10 2.15 -1.95 4.10 -1.95 4.40 0 0.30 -0.70 1.95 -1.55 3.65 -0.85 1.70 -2.35 5 -3.30 7.35 -2.30 5.55 -4.55 10 -5.65 11.25 -0.50 0.55 -1.15 1.90 -1.50 3 -0.35 1.10 -1.15 3.05 -1.80 4.35 -0.65 1.30 -1.20 2.60 -1.20 2.90 0 0.25 -0.55 1.65 -1.25 3.10 -0.70 1.40 -1.25 3 -1.25 3.50 0 0.50 -0.25 0.90 -0.50 0.90 -0.30 0 -0.75 0.55 -1 1.25 -0.45 1.15 -0.75 1.25 -3.25 1.25 l-2.75 0 -1.20 -2.60z"/>
  <path d="M286.75 109.55 c0.15 -0.50 2 -4.85 4.05 -9.60 2.10 -4.80 4.25 -9.80 4.85 -11.20 0.60 -1.35 1.20 -2.60 1.40 -2.75 0.15 -0.15 0.60 -1.15 0.95 -2.25 0.35 -1.10 2.20 -5.35 4.10 -9.50 3.30 -7.05 5.80 -12.90 8.30 -19.25 0.85 -2.20 1.10 -3.80 1.10 -7.80 l0 -5 -1.80 -2.15 c-2.80 -3.25 -6.85 -6 -9.60 -6.55 -5.90 -1.10 -10.75 -3.90 -11.35 -6.55 -0.50 -2.05 1.40 -3.85 4.75 -4.45 3 -0.60 20.10 -0.10 18.95 0.50 -1.85 1 -11.60 1.40 -12.60 0.55 -0.45 -0.35 -0.85 -0.35 -1.15 -0.05 -0.30 0.30 -1.50 0.60 -2.75 0.75 -2.50 0.25 -5.95 1.55 -5.95 2.20 0 0.65 4.50 3.55 6 3.85 0.70 0.15 1.85 0.60 2.65 1 0.75 0.40 1.55 0.65 1.80 0.50 0.20 -0.15 0.85 0.05 1.35 0.45 0.50 0.40 1.30 0.75 1.75 0.75 0.45 0 1.10 0.35 1.45 0.75 0.35 0.40 1 0.75 1.45 0.75 1.20 0.05 3.20 2 5.25 5.20 1.65 2.55 1.80 3.15 1.80 6.45 0 4.20 -1.55 9.75 -4.60 16.55 -1.10 2.45 -2.40 5.60 -2.90 7 -0.45 1.40 -1.60 4 -2.50 5.80 -0.90 1.75 -1.90 4 -2.30 4.95 -1.35 3.65 -3.80 9.40 -7 16.25 -5.35 11.50 -6.25 13.20 -7 13.50 -0.55 0.20 -0.70 0.05 -0.45 -0.65z"/>
  <path d="M193.85 105.15 c-0.20 -0.15 -0.35 -0.95 -0.35 -1.75 0 -0.75 -0.20 -1.40 -0.50 -1.40 -0.25 0 -0.50 -0.30 -0.50 -0.65 0 -0.35 -0.90 -2.40 -2 -4.60 -1.10 -2.20 -2 -4.30 -2 -4.65 0 -0.35 -0.45 -1.50 -1 -2.55 -0.50 -1.05 -0.80 -2.05 -0.65 -2.25 0.20 -0.15 0.10 -0.30 -0.15 -0.30 -0.50 0 -1.50 -1.80 -3.20 -6 -0.60 -1.50 -2.20 -5 -3.50 -7.75 -2.65 -5.40 -3.60 -8 -3.15 -8.45 0.20 -0.15 0.05 -0.30 -0.25 -0.30 -0.35 0 -0.60 -0.60 -0.60 -1.30 0 -0.70 -0.20 -1.15 -0.40 -1 -0.45 0.30 -2.10 -2.80 -2.10 -3.95 0 -0.35 -0.80 -2.25 -1.80 -4.20 -1 -1.95 -1.70 -3.80 -1.60 -4.15 0.15 -0.35 0.50 0.20 0.90 1.30 0.45 1.45 0.75 1.75 1.10 1.25 0.40 -0.55 0.45 -0.50 0.20 0.20 -0.15 0.45 -0.05 0.85 0.20 0.85 0.30 0 0.50 0.30 0.50 0.65 0 0.40 0.45 1.10 1 1.60 0.55 0.50 1 1.40 1 2.05 0 0.65 0.25 1.30 0.50 1.45 0.30 0.15 0.50 0.85 0.50 1.50 0 0.65 0.25 1.35 0.55 1.50 0.30 0.20 0.40 0.65 0.25 1.05 -0.15 0.40 -0.05 0.70 0.20 0.70 0.55 0 2 2.90 2 4 0 0.45 0.45 1.25 1 1.75 0.55 0.50 1 1.40 1 2 0 0.60 0.45 1.50 1 2 0.55 0.50 1 1.40 1 2.05 0 0.65 0.25 1.30 0.50 1.45 0.30 0.15 0.50 0.75 0.50 1.25 0 0.55 0.45 1.75 1 2.75 0.55 0.95 0.80 1.75 0.55 1.75 -0.70 0 0 2.05 0.75 2.35 0.40 0.15 0.70 0.55 0.70 0.90 0 0.30 0.40 0.95 0.90 1.45 0.55 0.45 1.25 1.75 1.60 2.95 0.40 1.15 0.90 2.40 1.15 2.70 0.25 0.35 0.35 1.10 0.20 1.65 -0.15 0.60 0.30 1.60 1.30 2.75 0.85 1 1.80 2.30 2.10 2.90 0.65 1.40 1.80 1.40 2.50 0.10 0.25 -0.55 1.10 -1.80 1.80 -2.75 0.70 -0.95 1.50 -2.20 1.70 -2.75 0.35 -0.80 0.45 -0.85 0.60 -0.20 0.20 0.75 -1.75 4.70 -4.25 8.60 -1.15 1.75 -2.05 2.25 -2.75 1.50z"/>
  <path d="M285.65 104.15 c-0.45 -0.15 -0.35 -0.65 0.30 -1.80 0.45 -0.90 1.15 -2.50 1.50 -3.60 0.75 -2.40 1.80 -3.90 2.50 -3.70 0.25 0.10 0.05 1.05 -0.50 2.15 -0.50 1.10 -0.95 2.35 -0.95 2.80 0 0.90 -1.35 3.85 -1.90 4.15 -0.20 0.15 -0.60 0.10 -0.95 0z"/>
  <path d="M306 104.30 c0 -0.15 0.55 -1.30 1.25 -2.60 0.70 -1.30 1.25 -2.65 1.25 -3 0 -0.40 0.20 -0.70 0.45 -0.70 0.25 0 0.60 -0.60 0.80 -1.35 0.15 -0.80 0.70 -1.95 1.15 -2.65 0.45 -0.70 3.60 -6.75 7 -13.50 3.40 -6.75 6.30 -12.20 6.50 -12.15 0.20 0.05 0.45 -0.50 0.50 -1.20 0.05 -0.65 0.55 -1.80 1.10 -2.50 0.55 -0.70 1 -1.70 1 -2.20 0 -0.55 0.40 -1.35 0.95 -1.90 0.50 -0.50 1.45 -1.90 2.10 -3.10 0.65 -1.20 1.70 -2.85 2.30 -3.60 0.65 -0.80 1.15 -1.75 1.15 -2.15 0 -0.90 0.40 -1.40 6.45 -7.70 4.60 -4.80 5.05 -5.15 5.05 -3.85 0 0.85 -0.30 1.50 -0.85 1.70 -1.20 0.40 -6.15 5.20 -6.15 5.95 0 0.30 -0.45 0.95 -1 1.45 -0.55 0.50 -1 1.15 -1 1.50 0 0.35 -0.45 1 -1 1.50 -0.55 0.50 -1 1.20 -1 1.50 0 0.35 -0.35 0.90 -0.75 1.25 -0.45 0.35 -1.25 1.65 -1.75 2.80 -0.55 1.20 -1.20 2.25 -1.45 2.40 -0.25 0.15 -1.75 2.95 -3.35 6.15 -1.60 3.25 -3.55 6.70 -4.35 7.65 -0.85 0.90 -1.25 1.80 -1 1.85 0.55 0.20 -2.35 6.25 -3.60 7.70 -0.40 0.40 -0.75 1.05 -0.75 1.40 0 0.80 -3.40 7.95 -4 8.30 -0.55 0.35 -2 3.20 -2 4 0 0.85 -2.25 5.10 -3.25 6.25 -0.85 0.90 -1.75 1.30 -1.75 0.80z"/>
  <path d="M93.55 96.45 c-0.60 -0.80 -1.05 -1.75 -1.05 -2.15 0 -0.40 -0.20 -0.90 -0.50 -1.05 -0.75 -0.45 -0.60 -1.75 0.20 -1.45 0.95 0.35 3.80 6.05 3 6.05 -0.35 0 -1.10 -0.65 -1.65 -1.40z"/>
  <path d="M290.65 93.90 c0.20 -0.50 0.10 -0.90 -0.15 -0.90 -0.25 0 -0.05 -0.75 0.50 -1.60 0.55 -0.90 1 -2.05 1 -2.50 0 -0.50 0.45 -1.65 1 -2.65 0.55 -1 1 -2.20 1 -2.70 0 -0.50 0.45 -1.30 1 -1.80 0.55 -0.50 1 -1.50 1 -2.25 0 -2.40 2.30 -5.85 3.25 -4.90 0.35 0.30 -0.90 3.40 -1.35 3.40 -0.20 0 -0.40 0.65 -0.40 1.45 0 0.80 -0.30 1.80 -0.65 2.15 -1.05 1.05 -3.35 6.35 -3.35 7.65 0 0.70 -0.20 1.25 -0.45 1.25 -0.25 0 -0.65 0.50 -0.85 1.15 -0.20 0.60 -0.65 1.55 -1.10 2.10 -0.55 0.80 -0.65 0.80 -0.45 0.15z"/>
  <path d="M215.50 93.10 c0 -1.15 5 -11.40 6.95 -14.25 0.80 -1.15 2.35 -3.90 3.50 -6.10 1.10 -2.20 2.45 -4.80 3 -5.75 0.50 -0.95 1.25 -2.40 1.70 -3.25 2.65 -4.95 3.60 -6.65 4.45 -7.75 0.85 -1.10 4.35 -6.65 6.75 -10.75 1.35 -2.20 5.65 -6.70 7.85 -8.20 1.05 -0.70 2.50 -1.70 3.25 -2.15 1.45 -1 7.05 -2.90 9.25 -3.20 0.80 -0.10 1.70 -0.40 2 -0.70 0.25 -0.25 0.85 -0.50 1.30 -0.50 1 0 4.30 -1.65 5.55 -2.80 0.55 -0.45 0.95 -1.25 0.95 -1.75 0 -0.95 -0.75 -1.30 -3.70 -1.70 -1.10 -0.10 -2.20 -0.45 -2.50 -0.75 -0.70 -0.70 -2.45 -0.60 -4.10 0.25 -1.65 0.85 -7.80 0.55 -10.45 -0.50 -1.30 -0.50 -0.45 -0.60 6.20 -0.85 8 -0.30 14.20 0.15 15.40 1.20 0.45 0.35 0.65 1.35 0.55 2.85 -0.15 2.25 -0.20 2.35 -3.20 3.90 -1.65 0.90 -5.05 2.10 -7.50 2.75 -5.75 1.45 -8.80 3.15 -13.40 7.45 -6.15 5.70 -8.05 8.60 -19.45 28.70 -2.60 4.70 -6.65 12.10 -8.95 16.45 -4 7.65 -5.40 9.55 -5.40 7.40z"/>
  <path d="M201.25 90.70 c0.60 -1.20 1.40 -2.55 1.80 -3 0.35 -0.45 0.95 -1.50 1.25 -2.40 0.35 -0.85 1.05 -2.80 1.65 -4.30 0.60 -1.50 1.05 -3.10 1.05 -3.55 0 -0.45 0.35 -1.15 0.80 -1.50 1 -0.80 3.20 -5.30 3.20 -6.50 0 -0.50 0.25 -1.05 0.50 -1.20 0.30 -0.15 0.50 -0.75 0.50 -1.25 0 -1.10 2.25 -3.90 2.75 -3.45 0.15 0.20 -0.10 1.20 -0.55 2.25 -0.45 1.10 -1.05 2.50 -1.35 3.20 -0.25 0.70 -0.65 1.60 -0.90 2 -0.25 0.40 -0.60 1.10 -0.75 1.50 -0.75 1.95 -2 4.25 -2.30 4.40 -0.25 0.10 -0.40 0.60 -0.40 1.10 0 0.50 -0.20 1.10 -0.50 1.25 -0.25 0.15 -0.50 0.85 -0.50 1.55 0 0.70 -0.55 2 -1.25 2.90 -0.70 0.90 -1.25 1.95 -1.25 2.35 0 0.40 -0.40 1.25 -0.85 1.90 -0.45 0.70 -1.10 2 -1.45 2.95 -0.35 1.15 -0.90 1.80 -1.55 1.85 -0.95 0.05 -0.95 0 0.10 -2.05z"/>
  <path d="M89.30 86.40 c-0.45 -0.60 -0.80 -1.40 -0.80 -1.75 0 -0.35 -0.20 -0.65 -0.50 -0.65 -0.25 0 -0.50 -0.45 -0.50 -1 0 -0.55 -0.20 -1.40 -0.50 -1.90 -0.25 -0.45 -1.05 -2.20 -1.80 -3.85 -0.75 -1.65 -1.60 -3.35 -1.95 -3.75 -0.35 -0.40 -0.75 -1.60 -0.90 -2.65 -0.15 -1 -0.75 -2.50 -1.30 -3.30 -1.15 -1.60 -1.35 -2.80 -0.55 -3.30 0.30 -0.15 0.50 0.05 0.50 0.50 0 0.45 0.45 1.40 1 2.10 0.55 0.70 1 1.55 1 1.90 0 0.35 0.70 1.95 1.50 3.50 0.85 1.55 1.50 3.15 1.50 3.45 0 0.95 1.40 3.60 2.25 4.30 0.40 0.35 0.75 1.15 0.75 1.80 0 0.60 0.25 1.30 0.50 1.45 0.30 0.15 0.50 0.85 0.50 1.50 0 0.65 0.25 1.35 0.50 1.50 0.30 0.15 0.50 0.50 0.50 0.80 0 0.80 -0.90 0.50 -1.70 -0.65z"/>
  <path d="M48.75 82.95 c-1.60 -2.50 -4.70 -9.30 -4.55 -9.75 0.15 -0.35 -0.30 -1.10 -0.90 -1.65 -0.65 -0.60 -1.45 -2.05 -1.80 -3.20 -0.40 -1.15 -1.10 -2.65 -1.60 -3.30 -0.50 -0.65 -0.90 -1.60 -0.90 -2.05 0 -0.50 -0.35 -1.15 -0.75 -1.50 -0.45 -0.35 -1.25 -1.60 -1.75 -2.75 -0.50 -1.15 -1.30 -2.40 -1.75 -2.75 -0.40 -0.35 -0.75 -1.15 -0.75 -1.75 0 -0.60 -0.35 -1.40 -0.75 -1.75 -0.45 -0.35 -1.25 -1.60 -1.75 -2.75 -0.50 -1.15 -1.30 -2.40 -1.75 -2.75 -0.40 -0.35 -0.75 -0.90 -0.75 -1.20 0 -0.65 -5.05 -5.80 -5.70 -5.80 -0.20 0 -1.10 -0.55 -1.90 -1.30 -0.85 -0.70 -1.85 -1.15 -2.20 -1 -0.35 0.15 -0.80 0.05 -0.95 -0.20 -0.20 -0.30 -0.95 -0.50 -1.75 -0.50 -0.75 0 -2.60 -0.60 -4.05 -1.40 -1.50 -0.75 -3.35 -1.45 -4.20 -1.55 -0.80 -0.05 -1.70 -0.35 -2 -0.55 -0.25 -0.20 -1.05 -0.50 -1.75 -0.60 -0.70 -0.05 -1.25 -0.35 -1.30 -0.65 0 -0.25 -0.50 -1.45 -1.05 -2.60 -1.55 -3.40 -0.95 -7.30 1.50 -9.60 1.20 -1.10 1.60 -1.15 4.70 -0.90 1.85 0.20 11 0.35 20.30 0.35 10.75 0 16.85 0.20 16.85 0.50 0 0.30 -7.35 0.55 -20.35 0.60 l-20.35 0.15 -1.15 1.70 c-0.65 0.95 -1.15 2.45 -1.15 3.35 0 2.35 1.55 5.65 2.75 6 1.25 0.35 3.05 1.10 4.85 2 0.70 0.40 1.80 0.70 2.45 0.70 1.05 0 2.85 0.50 6.05 1.60 0.75 0.30 1.50 0.50 1.65 0.45 0.45 -0.10 3.25 1.45 3.25 1.85 0 0.20 0.85 0.85 1.90 1.50 1 0.65 2.40 1.95 3.10 2.95 0.70 0.95 1.85 2.45 2.60 3.35 0.70 0.85 2.15 3.35 3.15 5.50 1 2.15 2.70 5.20 3.75 6.75 1.05 1.55 2.05 3.40 2.25 4.15 0.20 0.70 0.75 1.75 1.30 2.35 0.50 0.55 0.95 1.40 0.95 1.90 0 0.50 0.55 1.80 1.25 2.90 0.65 1.10 1.25 2.30 1.25 2.70 0 0.40 0.75 1.85 1.70 3.25 1.75 2.70 2.80 5.55 2.40 6.75 -0.15 0.40 0 0.55 0.35 0.35 0.30 -0.20 0.55 -0.10 0.55 0.15 0 0.70 -0.85 0.70 -1.25 0z"/>
  <path d="M300.55 71.65 c0.25 -0.70 0.40 -1.60 0.25 -1.90 -0.10 -0.35 0.10 -1.25 0.50 -2 0.40 -0.75 0.70 -1.75 0.70 -2.25 0 -0.90 2.45 -3.25 2.90 -2.80 0.10 0.15 -0.15 0.75 -0.60 1.40 -0.45 0.60 -0.80 1.75 -0.80 2.50 0 0.80 -0.15 1.40 -0.40 1.40 -0.20 0 -0.85 1.15 -1.50 2.50 -1.20 2.65 -1.95 3.40 -1.05 1.15z"/>
  <path d="M79.70 63.15 c0.20 -0.35 0.10 -0.65 -0.20 -0.65 -0.30 0 -0.45 -0.20 -0.25 -0.45 0.15 -0.25 -0.15 -0.80 -0.65 -1.15 -0.50 -0.35 -1.05 -1.20 -1.20 -1.90 -0.15 -0.70 -0.45 -1.65 -0.65 -2.20 -0.35 -0.80 -0.30 -0.85 0.70 -0.35 0.60 0.35 0.95 0.80 0.80 1.10 -0.20 0.25 -0.05 0.45 0.20 0.45 0.30 0 0.55 0.30 0.55 0.65 0 0.40 0.35 1.40 0.80 2.30 0.65 1.30 0.70 1.75 0.20 2.20 -0.50 0.45 -0.55 0.45 -0.30 0z"/>
  <path d="M215.25 61.40 c0.35 -3.75 2.70 -8.80 3.70 -8.15 0.55 0.30 -0.45 3.75 -1.05 3.75 -0.20 0 -0.40 0.45 -0.40 1 0 0.85 -1.85 5 -2.25 5 -0.10 0 -0.10 -0.75 0 -1.60z"/>
  <path d="M304.50 60.75 c0 -0.20 0.30 -1.05 0.70 -1.90 1.50 -3.50 1.80 -4.45 1.80 -5.35 0 -1.10 2.10 -6 2.60 -6 0.45 0 -0.15 4.15 -0.65 4.70 -0.25 0.30 -0.45 1 -0.45 1.65 0 0.65 -0.20 1.55 -0.40 2.05 -2 4.05 -2.45 4.80 -2.95 5 -0.35 0.10 -0.65 0.05 -0.65 -0.15z"/>
  <path d="M75 52.45 c0 -0.80 -1.40 -3.90 -2.05 -4.45 -0.60 -0.55 -1.65 -3.80 -1.50 -4.75 0.05 -0.55 0.55 -1.45 1.10 -2.05 0.50 -0.55 0.95 -1.40 0.95 -1.80 0 -0.50 0.85 -1.15 2.25 -1.65 1.25 -0.50 2.50 -1.20 2.80 -1.55 0.30 -0.40 1.15 -0.70 1.90 -0.70 0.75 0 1.55 -0.20 1.85 -0.45 0.25 -0.25 2.10 -0.90 4.05 -1.55 4.55 -1.35 6.10 -3 6.25 -6.40 0.05 -1.85 0.10 -2 0.25 -0.70 0.10 0.85 0.40 1.60 0.65 1.60 0.75 0 -0.55 3.15 -1.90 4.65 -0.70 0.75 -1.80 1.35 -2.40 1.35 -0.65 0 -1.30 0.25 -1.45 0.50 -0.15 0.30 -0.75 0.50 -1.30 0.50 -0.55 0 -1.70 0.40 -2.60 0.85 -0.90 0.45 -2.25 0.95 -3.10 1.05 -0.80 0.10 -1.95 0.60 -2.55 1.15 -0.55 0.50 -1.50 0.95 -2.10 0.95 -0.60 0 -1.10 0.30 -1.10 0.65 0 0.40 -0.45 1.10 -1 1.60 -1.25 1.15 -1.25 2.75 -0.10 4.85 0.50 0.90 1.05 2.20 1.20 2.90 0.20 0.70 0.50 1.95 0.80 2.80 0.40 1.20 0.35 1.55 -0.20 1.55 -0.40 0 -0.70 -0.40 -0.70 -0.90z"/>
  <path d="M219.35 52.70 c-0.50 -0.50 -0.45 -2.70 0.05 -2.70 0.20 0 0.45 -0.85 0.50 -1.85 0.10 -1.05 0.35 -2 0.65 -2.15 0.55 -0.40 -1.50 -4.60 -3.10 -6.30 -1.50 -1.60 -3.75 -2.70 -5.45 -2.70 -0.75 0 -1.75 -0.45 -2.25 -1 -0.50 -0.55 -1.20 -1 -1.60 -1 -0.35 0 -0.65 -0.20 -0.65 -0.45 0 -0.45 -0.45 -0.55 -3.10 -0.55 -2.35 0 -5.40 -2.10 -5.40 -3.65 0 -1 0 -1 1.15 -0.05 1.40 1.25 3.85 2.35 7.60 3.50 1.65 0.50 3.20 1.10 3.45 1.30 0.30 0.20 0.90 0.40 1.45 0.40 1.10 0 4.85 2.15 6.05 3.45 0.45 0.50 1.50 2.20 2.30 3.80 1.35 2.65 1.40 3 0.80 4.20 -0.40 0.70 -1 2.40 -1.40 3.70 -0.40 1.30 -0.85 2.25 -1.05 2.05z"/>
  <path d="M168.75 46.70 c-0.15 -0.80 -0.50 -1.85 -0.80 -2.30 -0.70 -1.35 -0.55 -4.05 0.35 -5.30 0.85 -1.25 3.40 -2.70 3.90 -2.25 0.15 0.15 0.70 -0.05 1.15 -0.45 0.50 -0.45 1.60 -0.90 2.40 -1.05 4.55 -0.90 8.20 -1.75 8.80 -2.10 0.60 -0.40 0.60 -0.30 0 0.40 -0.35 0.45 -1.15 0.85 -1.75 0.85 -0.55 0 -2.15 0.55 -3.50 1.25 -1.35 0.70 -2.85 1.25 -3.35 1.25 -0.50 0 -1.05 0.25 -1.20 0.50 -0.15 0.30 -1.05 0.50 -1.95 0.50 -2.20 0 -3.80 1.75 -3.80 4.15 0 1 0.25 1.95 0.50 2.10 0.60 0.40 0.65 2.25 0.05 3.20 -0.40 0.60 -0.55 0.40 -0.80 -0.75z"/>
  <path d="M308.65 45.90 c-0.30 -0.35 -0.65 -1.45 -0.85 -2.45 -0.40 -2.35 -0.90 -2.70 -7.90 -6.15 -3.25 -1.60 -5.90 -3 -5.90 -3.05 0 -0.10 0.85 -0.05 1.90 0.10 2.10 0.30 9.10 3.55 9.10 4.25 0 0.25 0.20 0.35 0.45 0.20 0.85 -0.55 3.70 3.50 4.25 6.10 0.40 1.65 -0.15 2.15 -1.05 1z"/>
  <path d="M345.50 39.60 c0 -0.80 0.20 -1 0.85 -0.75 0.55 0.20 0.70 0.15 0.45 -0.30 -0.20 -0.30 -0.20 -0.55 0.05 -0.45 0.60 0.15 4 -1.40 4.35 -2.05 0.20 -0.30 1 -0.55 1.75 -0.55 0.75 0 1.60 -0.25 1.90 -0.55 0.30 -0.30 1.15 -0.45 1.90 -0.35 1.35 0.15 1.35 0.15 -0.70 1.30 -1.20 0.60 -2.40 1.10 -2.75 1.10 -0.35 0 -1.55 0.45 -2.70 1 -1.10 0.55 -2.35 1 -2.65 1 -0.35 0 -1.05 0.35 -1.55 0.85 -0.85 0.75 -0.90 0.75 -0.90 -0.25z"/>
  <path d="M290.60 33.70 c-3.75 -1.90 -4.60 -3 -4.60 -6.05 0 -1.45 0.20 -2.65 0.45 -2.65 0.25 0 0.60 -0.60 0.70 -1.35 0.10 -0.80 0.25 0.35 0.30 2.50 0.05 3.10 0.25 4.05 1.05 4.85 0.55 0.55 1.35 1 1.80 1 0.45 0 0.70 0.30 0.55 0.65 -0.20 0.50 0.10 0.65 0.90 0.45 1.20 -0.20 1.90 0.40 1.35 1.20 -0.20 0.30 -1.15 0.10 -2.50 -0.60z"/>
  <path d="M360.20 34.20 c0.10 -0.70 0.70 -1.05 2.30 -1.25 3.45 -0.45 4.50 -2.10 4.50 -6.85 l0 -3.90 -1.60 -0.60 c-2.05 -0.75 -1.55 -1.25 0.80 -0.85 l1.80 0.35 0 5.25 c0 5.05 -0.05 5.25 -1.35 6.40 -1 0.85 -2 1.20 -3.40 1.25 -1.15 0 -2.30 0.25 -2.60 0.55 -0.45 0.45 -0.55 0.35 -0.45 -0.35z"/>
  <path d="M208 31.95 c-5.45 -2.05 -7.50 -3.60 -7.50 -5.65 0 -3 3.75 -4 14.45 -3.90 8.10 0.10 10.20 0.40 8.15 1.15 -2.55 0.95 -7 1.10 -8.65 0.25 -2.05 -1 -3.80 -1 -4.80 0 -0.45 0.40 -1.25 0.65 -1.75 0.55 -0.50 -0.15 -2 0.20 -3.30 0.75 l-2.30 1.05 2.15 1.90 c1.25 1.15 2.90 2.05 3.95 2.25 1.05 0.20 2.10 0.55 2.45 0.80 0.30 0.25 1.20 0.55 1.95 0.70 1.80 0.35 2.20 0.60 2.20 1.50 0 1.05 -1.25 0.85 -7 -1.35z"/>
  <path d="M356.50 31.85 c0 -0.40 0.35 -0.90 0.80 -1.05 0.55 -0.20 0.70 -0.05 0.60 0.55 -0.20 1.05 -1.40 1.50 -1.40 0.50z"/>
  <path d="M187.40 30.85 c0.95 -1 1.10 -1.75 1.10 -5 0 -3.45 -0.10 -3.85 -0.95 -3.85 -0.50 0 -1.20 -0.35 -1.55 -0.75 -0.50 -0.65 -0.45 -0.75 0.40 -0.75 0.55 0 1.65 0.25 2.35 0.50 1.10 0.45 1.30 0.70 1 1.65 -0.20 0.60 -0.55 2.75 -0.70 4.80 -0.25 3.35 -0.40 3.75 -1.55 4.15 l-1.20 0.45 1.10 -1.20z"/>
  <path d="M359.75 31.50 c-0.45 -0.75 0.10 -1.35 2 -2.30 1.15 -0.50 1.90 -1.40 2.45 -2.75 0.90 -2.20 1.80 -2.55 1.80 -0.65 0 1.85 -0.80 3.05 -2.30 3.40 -0.70 0.20 -1.80 0.90 -2.45 1.60 -0.70 0.75 -1.30 1.05 -1.50 0.70z"/>
  <path d="M198.20 23.85 c-0.20 -0.55 0 -1.25 0.50 -1.80 1.05 -1.15 3.80 -1.65 3.80 -0.75 0 0.35 -0.60 0.70 -1.35 0.80 -0.85 0.10 -1.60 0.60 -2 1.40 -0.50 1.05 -0.65 1.10 -0.95 0.35z"/>
  <path d="M29 23.60 c0 -0.30 0.35 -0.65 0.80 -0.80 1.25 -0.45 11.55 -0.35 10.70 0.15 -1.15 0.65 -11.50 1.20 -11.50 0.65z"/>
  <path d="M93 23.10 c0 -0.65 -0.20 -1.05 -0.40 -0.90 -0.25 0.15 -1 -0.05 -1.75 -0.45 -0.70 -0.35 -1.70 -0.75 -2.20 -0.90 -0.60 -0.15 -0.40 -0.25 0.50 -0.30 0.75 0 1.35 0.20 1.35 0.50 0 0.40 0.20 0.40 0.65 0 0.95 -0.75 3 1.40 2.35 2.45 -0.40 0.60 -0.50 0.50 -0.50 -0.40z"/>
  <path d="M360.25 23.55 c-0.55 -0.25 -4.80 -0.45 -9.45 -0.50 -4.60 -0.05 -10.25 -0.20 -12.45 -0.35 -8.30 -0.50 -4.20 -0.80 10 -0.60 10.85 0.10 14.75 0.30 15.25 0.80 0.45 0.45 0.45 0.60 -0.20 0.60 -0.45 0 -1.10 0.10 -1.50 0.20 -0.35 0.15 -1.10 0.05 -1.65 -0.15z"/>
  <path d="M11 22.55 c0 -0.90 8 -1.35 12.70 -0.75 4.55 0.65 2.15 1.20 -5.20 1.20 -4.10 0 -7.50 -0.20 -7.50 -0.45z"/>
  <path d="M225.75 21.20 c-1.90 -0.35 -6.95 -0.65 -11.10 -0.65 -7.65 -0.05 -10.10 -0.70 -5 -1.30 7 -0.85 22.65 1 20 2.40 -0.25 0.10 -1.95 -0.10 -3.90 -0.45z"/>
  <path d="M109.90 20.60 c1.30 -1.15 6.10 -1.90 9.40 -1.45 2.30 0.30 7.30 1.90 6.95 2.25 -0.10 0.10 -2.05 -0.05 -4.30 -0.40 -3.90 -0.60 -10.15 -0.45 -12.20 0.30 -0.90 0.30 -0.85 0.25 0.15 -0.70z"/>
  <path d="M141.25 21.10 c-0.55 -0.55 -0.20 -1.10 0.70 -1.10 0.55 0 1.10 -0.20 1.25 -0.45 0.45 -0.65 4.25 -0.25 5.20 0.55 0.45 0.45 1.20 0.90 1.60 1.05 0.40 0.15 0.15 0.30 -0.65 0.30 -0.75 0.05 -1.80 -0.20 -2.30 -0.55 -0.70 -0.45 -1.55 -0.45 -3.25 -0.05 -1.25 0.25 -2.40 0.40 -2.55 0.25z"/>
  <path d="M289.20 21.15 c0.55 -0.55 2.40 -0.70 2.05 -0.15 -0.15 0.25 -0.80 0.50 -1.35 0.50 -0.60 0 -0.90 -0.15 -0.70 -0.35z"/>
  <path d="M313.75 20.95 c-0.80 -0.20 -5.60 -0.35 -10.60 -0.40 -5.45 -0.05 -9.20 -0.25 -9.40 -0.55 -0.20 -0.30 2.05 -0.50 6.35 -0.55 3.65 -0.05 7.65 -0.15 8.90 -0.20 1.25 -0.05 2.50 0.05 2.75 0.30 0.30 0.20 1.45 0.45 2.65 0.60 1.15 0.10 2.25 0.35 2.40 0.45 0.45 0.50 -1.55 0.70 -3.05 0.35z"/>
  <path d="M268.65 20.65 c0.15 -0.25 -4 -0.35 -9.20 -0.25 -5.60 0.10 -9.45 -0.05 -9.45 -0.30 0 -0.30 0.85 -0.60 1.90 -0.70 2.20 -0.30 17.65 0 18 0.30 0.30 0.35 -0.40 1.30 -0.95 1.30 -0.30 0 -0.40 -0.15 -0.30 -0.35z"/>
  <path d="M49.50 20 c0 -0.30 1.35 -0.50 3 -0.50 1.65 0 3 0.20 3 0.50 0 0.30 -1.35 0.50 -3 0.50 -1.65 0 -3 -0.20 -3 -0.50z"/>
  <path d="M58 20.10 c0 -0.25 4.35 -0.60 9.65 -0.75 7.40 -0.25 10.15 -0.15 11.85 0.35 2.05 0.65 1.20 0.70 -9.60 0.75 -6.55 0.05 -11.90 -0.10 -11.90 -0.35z"/>
  <path d="M160 20.05 c0 -0.90 22.05 -1.15 22.35 -0.25 0.15 0.40 -3.05 0.60 -11.10 0.65 -7.65 0.10 -11.25 -0.05 -11.25 -0.40z"/>
  <path d="M333.50 20 c0 -0.30 2.90 -0.50 7.65 -0.50 4.15 0 10.10 -0.15 13.15 -0.30 4.85 -0.30 5.60 -0.25 5.85 0.50 0.30 0.75 -0.90 0.80 -13.15 0.80 -8.65 0 -13.50 -0.20 -13.50 -0.50z"/>
 </g>
</svg>